[{"track": 0, "contents": [{"message": "MetaMessage('set_tempo', tempo=480000, time=0)", "time": 0}, {"message": "MetaMessage('end_of_track', time=0)", "time": 0}]}, {"track": 1, "contents": [{"message": "MetaMessage('track_name', name='Kick', time=0)", "time": 0}, {"message": "note_on channel=0 note=8 velocity=102 time=0", "time": 0}, {"message": "note_off channel=0 note=8 velocity=102 time=484", "time": 484}, {"message": "note_on channel=0 note=8 velocity=102 time=449", "time": 449}, {"message": "note_off channel=0 note=8 velocity=102 time=496", "time": 496}, {"message": "note_on channel=0 note=8 velocity=102 time=479", "time": 479}, {"message": "note_off channel=0 note=8 velocity=102 time=491", "time": 491}, {"message": "note_on channel=0 note=8 velocity=102 time=470", "time": 470}, {"message": "note_off channel=0 note=8 velocity=102 time=480", "time": 480}, {"message": "note_on channel=0 note=8 velocity=102 time=0", "time": 0}, {"message": "note_off channel=0 note=8 velocity=102 time=478", "time": 478}, {"message": "note_on channel=0 note=8 velocity=102 time=0", "time": 0}, {"message": "note_off channel=0 note=8 velocity=102 time=492", "time": 492}, {"message": "note_on channel=0 note=8 velocity=102 time=473", "time": 473}, {"message": "note_off channel=0 note=8 velocity=102 time=487", "time": 487}, {"message": "note_on channel=0 note=8 velocity=102 time=470", "time": 470}, {"message": "note_off channel=0 note=8 velocity=102 time=489", "time": 489}, {"message": "note_on channel=0 note=8 velocity=102 time=473", "time": 473}, {"message": "note_off channel=0 note=8 velocity=102 time=488", "time": 488}, {"message": "note_on channel=0 note=8 velocity=102 time=467", "time": 467}, {"message": "note_off channel=0 note=8 velocity=102 time=493", "time": 493}, {"message": "note_on channel=0 note=8 velocity=102 time=467", "time": 467}, {"message": "note_off channel=0 note=8 velocity=102 time=493", "time": 493}, {"message": "note_on channel=0 note=8 velocity=102 time=462", "time": 462}, {"message": "note_off channel=0 note=8 velocity=102 time=498", "time": 498}, {"message": "note_on channel=0 note=8 velocity=102 time=476", "time": 476}, {"message": "note_off channel=0 note=8 velocity=102 time=466", "time": 466}, {"message": "note_on channel=0 note=8 velocity=102 time=0", "time": 0}, {"message": "note_off channel=0 note=8 velocity=102 time=487", "time": 487}, {"message": "note_on channel=0 note=8 velocity=102 time=0", "time": 0}, {"message": "note_off channel=0 note=8 velocity=102 time=491", "time": 491}, {"message": "note_on channel=0 note=8 velocity=102 time=472", "time": 472}, {"message": "note_off channel=0 note=8 velocity=102 time=488", "time": 488}, {"message": "note_on channel=0 note=8 velocity=102 time=462", "time": 462}, {"message": "note_off channel=0 note=8 velocity=102 time=498", "time": 498}, {"message": "note_on channel=0 note=8 velocity=102 time=471", "time": 471}, {"message": "note_off channel=0 note=8 velocity=102 time=489", "time": 489}, {"message": "note_on channel=0 note=8 velocity=102 time=477", "time": 477}, {"message": "note_off channel=0 note=8 velocity=102 time=483", "time": 483}, {"message": "note_on channel=0 note=8 velocity=102 time=452", "time": 452}, {"message": "note_off channel=0 note=8 velocity=102 time=498", "time": 498}, {"message": "note_on channel=0 note=8 velocity=102 time=487", "time": 487}, {"message": "note_off channel=0 note=8 velocity=102 time=483", "time": 483}, {"message": "note_on channel=0 note=8 velocity=102 time=454", "time": 454}, {"message": "note_off channel=0 note=8 velocity=102 time=487", "time": 487}, {"message": "note_on channel=0 note=8 velocity=102 time=0", "time": 0}, {"message": "note_off channel=0 note=8 velocity=102 time=480", "time": 480}, {"message": "note_on channel=0 note=8 velocity=102 time=0", "time": 0}, {"message": "note_off channel=0 note=8 velocity=102 time=499", "time": 499}, {"message": "note_on channel=0 note=8 velocity=102 time=464", "time": 464}, {"message": "note_off channel=0 note=8 velocity=102 time=496", "time": 496}, {"message": "note_on channel=0 note=8 velocity=102 time=477", "time": 477}, {"message": "note_off channel=0 note=8 velocity=102 time=483", "time": 483}, {"message": "note_on channel=0 note=8 velocity=102 time=465", "time": 465}, {"message": "note_off channel=0 note=8 velocity=102 time=495", "time": 495}, {"message": "note_on channel=0 note=8 velocity=102 time=473", "time": 473}, {"message": "note_off channel=0 note=8 velocity=102 time=487", "time": 487}, {"message": "note_on channel=0 note=8 velocity=102 time=474", "time": 474}, {"message": "note_off channel=0 note=8 velocity=102 time=485", "time": 485}, {"message": "note_on channel=0 note=8 velocity=102 time=468", "time": 468}, {"message": "note_off channel=0 note=8 velocity=102 time=493", "time": 493}, {"message": "note_on channel=0 note=8 velocity=102 time=466", "time": 466}, {"message": "note_off channel=0 note=8 velocity=102 time=493", "time": 493}, {"message": "note_on channel=0 note=8 velocity=102 time=0", "time": 0}, {"message": "note_off channel=0 note=8 velocity=102 time=481", "time": 481}, {"message": "note_on channel=0 note=8 velocity=102 time=3839", "time": 3839}, {"message": "note_off channel=0 note=8 velocity=102 time=480", "time": 480}, {"message": "note_on channel=0 note=8 velocity=102 time=466", "time": 466}, {"message": "note_off channel=0 note=8 velocity=102 time=485", "time": 485}, {"message": "note_on channel=0 note=8 velocity=102 time=478", "time": 478}, {"message": "note_off channel=0 note=8 velocity=102 time=492", "time": 492}, {"message": "note_on channel=0 note=8 velocity=102 time=469", "time": 469}, {"message": "note_off channel=0 note=8 velocity=102 time=478", "time": 478}, {"message": "note_on channel=0 note=8 velocity=102 time=0", "time": 0}, {"message": "note_off channel=0 note=8 velocity=102 time=490", "time": 490}, {"message": "note_on channel=0 note=8 velocity=102 time=0", "time": 0}, {"message": "note_off channel=0 note=8 velocity=102 time=483", "time": 483}, {"message": "note_on channel=0 note=8 velocity=102 time=470", "time": 470}, {"message": "note_off channel=0 note=8 velocity=102 time=490", "time": 490}, {"message": "note_on channel=0 note=8 velocity=102 time=479", "time": 479}, {"message": "note_off channel=0 note=8 velocity=102 time=481", "time": 481}, {"message": "note_on channel=0 note=8 velocity=102 time=465", "time": 465}, {"message": "note_off channel=0 note=8 velocity=102 time=495", "time": 495}, {"message": "note_on channel=0 note=8 velocity=102 time=470", "time": 470}, {"message": "note_off channel=0 note=8 velocity=102 time=490", "time": 490}, {"message": "note_on channel=0 note=8 velocity=102 time=466", "time": 466}, {"message": "note_off channel=0 note=8 velocity=102 time=494", "time": 494}, {"message": "note_on channel=0 note=8 velocity=102 time=477", "time": 477}, {"message": "note_off channel=0 note=8 velocity=102 time=483", "time": 483}, {"message": "note_on channel=0 note=8 velocity=102 time=463", "time": 463}, {"message": "note_off channel=0 note=8 velocity=102 time=488", "time": 488}, {"message": "note_on channel=0 note=8 velocity=102 time=0", "time": 0}, {"message": "note_off channel=0 note=8 velocity=102 time=481", "time": 481}, {"message": "note_on channel=0 note=8 velocity=102 time=0", "time": 0}, {"message": "note_off channel=0 note=8 velocity=102 time=488", "time": 488}, {"message": "note_on channel=0 note=8 velocity=102 time=470", "time": 470}, {"message": "note_off channel=0 note=8 velocity=102 time=490", "time": 490}, {"message": "note_on channel=0 note=8 velocity=102 time=466", "time": 466}, {"message": "note_off channel=0 note=8 velocity=102 time=494", "time": 494}, {"message": "note_on channel=0 note=8 velocity=102 time=471", "time": 471}, {"message": "note_off channel=0 note=8 velocity=102 time=489", "time": 489}, {"message": "note_on channel=0 note=8 velocity=102 time=470", "time": 470}, {"message": "note_off channel=0 note=8 velocity=102 time=490", "time": 490}, {"message": "note_on channel=0 note=8 velocity=102 time=454", "time": 454}, {"message": "note_off channel=0 note=8 velocity=102 time=496", "time": 496}, {"message": "note_on channel=0 note=8 velocity=102 time=484", "time": 484}, {"message": "note_off channel=0 note=8 velocity=102 time=486", "time": 486}, {"message": "note_on channel=0 note=8 velocity=102 time=451", "time": 451}, {"message": "note_off channel=0 note=8 velocity=102 time=492", "time": 492}, {"message": "note_on channel=0 note=8 velocity=102 time=0", "time": 0}, {"message": "note_off channel=0 note=8 velocity=102 time=495", "time": 495}, {"message": "note_on channel=0 note=8 velocity=102 time=0", "time": 0}, {"message": "note_off channel=0 note=8 velocity=102 time=482", "time": 482}, {"message": "note_on channel=0 note=8 velocity=102 time=469", "time": 469}, {"message": "note_off channel=0 note=8 velocity=102 time=491", "time": 491}, {"message": "note_on channel=0 note=8 velocity=102 time=471", "time": 471}, {"message": "note_off channel=0 note=8 velocity=102 time=489", "time": 489}, {"message": "note_on channel=0 note=8 velocity=102 time=478", "time": 478}, {"message": "note_off channel=0 note=8 velocity=102 time=482", "time": 482}, {"message": "note_on channel=0 note=8 velocity=102 time=470", "time": 470}, {"message": "note_off channel=0 note=8 velocity=102 time=490", "time": 490}, {"message": "note_on channel=0 note=8 velocity=102 time=464", "time": 464}, {"message": "note_off channel=0 note=8 velocity=102 time=496", "time": 496}, {"message": "note_on channel=0 note=8 velocity=102 time=465", "time": 465}, {"message": "note_off channel=0 note=8 velocity=102 time=495", "time": 495}, {"message": "note_on channel=0 note=8 velocity=102 time=467", "time": 467}, {"message": "note_off channel=0 note=8 velocity=102 time=490", "time": 490}, {"message": "note_on channel=0 note=8 velocity=102 time=0", "time": 0}, {"message": "note_off channel=0 note=8 velocity=102 time=483", "time": 483}, {"message": "note_on channel=0 note=8 velocity=102 time=3830", "time": 3830}, {"message": "note_off channel=0 note=8 velocity=102 time=490", "time": 490}, {"message": "note_on channel=0 note=8 velocity=102 time=457", "time": 457}, {"message": "note_off channel=0 note=8 velocity=102 time=493", "time": 493}, {"message": "note_on channel=0 note=8 velocity=102 time=472", "time": 472}, {"message": "note_off channel=0 note=8 velocity=102 time=498", "time": 498}, {"message": "note_on channel=0 note=8 velocity=102 time=463", "time": 463}, {"message": "note_off channel=0 note=8 velocity=102 time=487", "time": 487}, {"message": "note_on channel=0 note=8 velocity=102 time=6", "time": 6}, {"message": "note_off channel=0 note=8 velocity=102 time=482", "time": 482}, {"message": "note_on channel=0 note=8 velocity=102 time=0", "time": 0}, {"message": "note_off channel=0 note=8 velocity=102 time=481", "time": 481}, {"message": "note_on channel=0 note=8 velocity=102 time=471", "time": 471}, {"message": "note_off channel=0 note=8 velocity=102 time=490", "time": 490}, {"message": "note_on channel=0 note=8 velocity=102 time=474", "time": 474}, {"message": "note_off channel=0 note=8 velocity=102 time=485", "time": 485}, {"message": "note_on channel=0 note=8 velocity=102 time=469", "time": 469}, {"message": "note_off channel=0 note=8 velocity=102 time=492", "time": 492}, {"message": "note_on channel=0 note=8 velocity=102 time=479", "time": 479}, {"message": "note_off channel=0 note=8 velocity=102 time=481", "time": 481}, {"message": "note_on channel=0 note=8 velocity=102 time=479", "time": 479}, {"message": "note_off channel=0 note=8 velocity=102 time=481", "time": 481}, {"message": "note_on channel=0 note=8 velocity=102 time=464", "time": 464}, {"message": "note_off channel=0 note=8 velocity=102 time=496", "time": 496}, {"message": "note_on channel=0 note=8 velocity=102 time=478", "time": 478}, {"message": "note_off channel=0 note=8 velocity=102 time=465", "time": 465}, {"message": "note_on channel=0 note=8 velocity=102 time=0", "time": 0}, {"message": "note_off channel=0 note=8 velocity=102 time=496", "time": 496}, {"message": "note_on channel=0 note=8 velocity=102 time=0", "time": 0}, {"message": "note_off channel=0 note=8 velocity=102 time=481", "time": 481}, {"message": "note_on channel=0 note=8 velocity=102 time=463", "time": 463}, {"message": "note_off channel=0 note=8 velocity=102 time=496", "time": 496}, {"message": "note_on channel=0 note=8 velocity=102 time=474", "time": 474}, {"message": "note_off channel=0 note=8 velocity=102 time=487", "time": 487}, {"message": "note_on channel=0 note=8 velocity=102 time=478", "time": 478}, {"message": "note_off channel=0 note=8 velocity=102 time=482", "time": 482}, {"message": "note_on channel=0 note=8 velocity=102 time=478", "time": 478}, {"message": "note_off channel=0 note=8 velocity=102 time=482", "time": 482}, {"message": "note_on channel=0 note=8 velocity=102 time=458", "time": 458}, {"message": "note_off channel=0 note=8 velocity=102 time=493", "time": 493}, {"message": "note_on channel=0 note=8 velocity=102 time=477", "time": 477}, {"message": "note_off channel=0 note=8 velocity=102 time=491", "time": 491}, {"message": "note_on channel=0 note=8 velocity=102 time=461", "time": 461}, {"message": "note_off channel=0 note=8 velocity=102 time=490", "time": 490}, {"message": "note_on channel=0 note=8 velocity=102 time=3", "time": 3}, {"message": "note_off channel=0 note=8 velocity=102 time=486", "time": 486}, {"message": "note_on channel=0 note=8 velocity=102 time=0", "time": 0}, {"message": "note_off channel=0 note=8 velocity=102 time=481", "time": 481}, {"message": "note_on channel=0 note=8 velocity=102 time=476", "time": 476}, {"message": "note_off channel=0 note=8 velocity=102 time=484", "time": 484}, {"message": "note_on channel=0 note=8 velocity=102 time=474", "time": 474}, {"message": "note_off channel=0 note=8 velocity=102 time=486", "time": 486}, {"message": "note_on channel=0 note=8 velocity=102 time=466", "time": 466}, {"message": "note_off channel=0 note=8 velocity=102 time=494", "time": 494}, {"message": "note_on channel=0 note=8 velocity=102 time=470", "time": 470}, {"message": "note_off channel=0 note=8 velocity=102 time=490", "time": 490}, {"message": "note_on channel=0 note=8 velocity=102 time=466", "time": 466}, {"message": "note_off channel=0 note=8 velocity=102 time=494", "time": 494}, {"message": "note_on channel=0 note=8 velocity=102 time=478", "time": 478}, {"message": "note_off channel=0 note=8 velocity=102 time=482", "time": 482}, {"message": "note_on channel=0 note=8 velocity=102 time=469", "time": 469}, {"message": "note_off channel=0 note=8 velocity=102 time=487", "time": 487}, {"message": "note_on channel=0 note=8 velocity=102 time=0", "time": 0}, {"message": "note_off channel=0 note=8 velocity=102 time=484", "time": 484}, {"message": "note_on channel=0 note=8 velocity=102 time=3826", "time": 3826}, {"message": "note_off channel=0 note=8 velocity=102 time=494", "time": 494}, {"message": "note_on channel=0 note=8 velocity=102 time=459", "time": 459}, {"message": "note_off channel=0 note=8 velocity=102 time=491", "time": 491}, {"message": "note_on channel=0 note=8 velocity=102 time=471", "time": 471}, {"message": "note_off channel=0 note=8 velocity=102 time=499", "time": 499}, {"message": "note_on channel=0 note=8 velocity=102 time=457", "time": 457}, {"message": "note_off channel=0 note=8 velocity=102 time=493", "time": 493}, {"message": "note_on channel=0 note=8 velocity=102 time=5", "time": 5}, {"message": "note_off channel=0 note=8 velocity=102 time=467", "time": 467}, {"message": "note_on channel=0 note=8 velocity=102 time=0", "time": 0}, {"message": "note_off channel=0 note=8 velocity=102 time=498", "time": 498}, {"message": "note_on channel=0 note=8 velocity=102 time=477", "time": 477}, {"message": "note_off channel=0 note=8 velocity=102 time=482", "time": 482}, {"message": "note_on channel=0 note=8 velocity=102 time=466", "time": 466}, {"message": "note_off channel=0 note=8 velocity=102 time=495", "time": 495}, {"message": "note_on channel=0 note=8 velocity=102 time=480", "time": 480}, {"message": "note_off channel=0 note=8 velocity=102 time=480", "time": 480}, {"message": "note_on channel=0 note=8 velocity=102 time=469", "time": 469}, {"message": "note_off channel=0 note=8 velocity=102 time=491", "time": 491}, {"message": "note_on channel=0 note=8 velocity=102 time=470", "time": 470}, {"message": "note_off channel=0 note=8 velocity=102 time=489", "time": 489}, {"message": "note_on channel=0 note=8 velocity=102 time=465", "time": 465}, {"message": "note_off channel=0 note=8 velocity=102 time=496", "time": 496}, {"message": "note_on channel=0 note=8 velocity=102 time=464", "time": 464}, {"message": "note_off channel=0 note=8 velocity=102 time=486", "time": 486}, {"message": "note_on channel=0 note=8 velocity=102 time=0", "time": 0}, {"message": "note_off channel=0 note=8 velocity=102 time=471", "time": 471}, {"message": "note_on channel=0 note=8 velocity=102 time=0", "time": 0}, {"message": "note_off channel=0 note=8 velocity=102 time=499", "time": 499}, {"message": "note_on channel=0 note=8 velocity=102 time=480", "time": 480}, {"message": "note_off channel=0 note=8 velocity=102 time=479", "time": 479}, {"message": "note_on channel=0 note=8 velocity=102 time=463", "time": 463}, {"message": "note_off channel=0 note=8 velocity=102 time=498", "time": 498}, {"message": "note_on channel=0 note=8 velocity=102 time=466", "time": 466}, {"message": "note_off channel=0 note=8 velocity=102 time=494", "time": 494}, {"message": "note_on channel=0 note=8 velocity=102 time=476", "time": 476}, {"message": "note_off channel=0 note=8 velocity=102 time=484", "time": 484}, {"message": "note_on channel=0 note=8 velocity=102 time=451", "time": 451}, {"message": "note_off channel=0 note=8 velocity=102 time=499", "time": 499}, {"message": "note_on channel=0 note=8 velocity=102 time=490", "time": 490}, {"message": "note_off channel=0 note=8 velocity=102 time=480", "time": 480}, {"message": "note_on channel=0 note=8 velocity=102 time=466", "time": 466}, {"message": "note_off channel=0 note=8 velocity=102 time=484", "time": 484}, {"message": "note_on channel=0 note=8 velocity=102 time=4", "time": 4}, {"message": "note_off channel=0 note=8 velocity=102 time=477", "time": 477}, {"message": "note_on channel=0 note=8 velocity=102 time=0", "time": 0}, {"message": "note_off channel=0 note=8 velocity=102 time=489", "time": 489}, {"message": "note_on channel=0 note=8 velocity=102 time=464", "time": 464}, {"message": "note_off channel=0 note=8 velocity=102 time=496", "time": 496}, {"message": "note_on channel=0 note=8 velocity=102 time=477", "time": 477}, {"message": "note_off channel=0 note=8 velocity=102 time=483", "time": 483}, {"message": "note_on channel=0 note=8 velocity=102 time=480", "time": 480}, {"message": "note_off channel=0 note=8 velocity=102 time=480", "time": 480}, {"message": "note_on channel=0 note=8 velocity=102 time=462", "time": 462}, {"message": "note_off channel=0 note=8 velocity=102 time=498", "time": 498}, {"message": "note_on channel=0 note=8 velocity=102 time=472", "time": 472}, {"message": "note_off channel=0 note=8 velocity=102 time=488", "time": 488}, {"message": "note_on channel=0 note=8 velocity=102 time=480", "time": 480}, {"message": "note_off channel=0 note=8 velocity=102 time=480", "time": 480}, {"message": "note_on channel=0 note=8 velocity=102 time=478", "time": 478}, {"message": "note_off channel=0 note=8 velocity=102 time=474", "time": 474}, {"message": "note_on channel=0 note=8 velocity=102 time=0", "time": 0}, {"message": "note_off channel=0 note=8 velocity=102 time=480", "time": 480}, {"message": "note_on channel=0 note=8 velocity=102 time=0", "time": 0}, {"message": "note_off channel=0 note=8 velocity=102 time=488", "time": 488}, {"message": "note_on channel=0 note=8 velocity=102 time=473", "time": 473}, {"message": "note_off channel=0 note=8 velocity=102 time=487", "time": 487}, {"message": "note_on channel=0 note=8 velocity=102 time=465", "time": 465}, {"message": "note_off channel=0 note=8 velocity=102 time=495", "time": 495}, {"message": "note_on channel=0 note=8 velocity=102 time=472", "time": 472}, {"message": "note_off channel=0 note=8 velocity=102 time=487", "time": 487}, {"message": "note_on channel=0 note=8 velocity=102 time=477", "time": 477}, {"message": "note_off channel=0 note=8 velocity=102 time=484", "time": 484}, {"message": "note_on channel=0 note=8 velocity=102 time=468", "time": 468}, {"message": "note_off channel=0 note=8 velocity=102 time=482", "time": 482}, {"message": "note_on channel=0 note=8 velocity=102 time=489", "time": 489}, {"message": "note_off channel=0 note=8 velocity=102 time=481", "time": 481}, {"message": "note_on channel=0 note=8 velocity=102 time=455", "time": 455}, {"message": "note_off channel=0 note=8 velocity=102 time=495", "time": 495}, {"message": "note_on channel=0 note=8 velocity=102 time=6", "time": 6}, {"message": "note_off channel=0 note=8 velocity=102 time=468", "time": 468}, {"message": "note_on channel=0 note=8 velocity=102 time=0", "time": 0}, {"message": "note_off channel=0 note=8 velocity=102 time=496", "time": 496}, {"message": "note_on channel=0 note=8 velocity=102 time=469", "time": 469}, {"message": "note_off channel=0 note=8 velocity=102 time=491", "time": 491}, {"message": "note_on channel=0 note=8 velocity=102 time=464", "time": 464}, {"message": "note_off channel=0 note=8 velocity=102 time=496", "time": 496}, {"message": "note_on channel=0 note=8 velocity=102 time=479", "time": 479}, {"message": "note_off channel=0 note=8 velocity=102 time=481", "time": 481}, {"message": "note_on channel=0 note=8 velocity=102 time=461", "time": 461}, {"message": "note_off channel=0 note=8 velocity=102 time=499", "time": 499}, {"message": "note_on channel=0 note=8 velocity=102 time=477", "time": 477}, {"message": "note_off channel=0 note=8 velocity=102 time=483", "time": 483}, {"message": "note_on channel=0 note=8 velocity=102 time=468", "time": 468}, {"message": "note_off channel=0 note=8 velocity=102 time=492", "time": 492}, {"message": "note_on channel=0 note=8 velocity=102 time=480", "time": 480}, {"message": "note_off channel=0 note=8 velocity=102 time=469", "time": 469}, {"message": "note_on channel=0 note=8 velocity=102 time=0", "time": 0}, {"message": "note_off channel=0 note=8 velocity=102 time=485", "time": 485}, {"message": "note_on channel=0 note=8 velocity=102 time=0", "time": 0}, {"message": "note_off channel=0 note=8 velocity=102 time=486", "time": 486}, {"message": "note_on channel=0 note=8 velocity=102 time=470", "time": 470}, {"message": "note_off channel=0 note=8 velocity=102 time=490", "time": 490}, {"message": "note_on channel=0 note=8 velocity=102 time=474", "time": 474}, {"message": "note_off channel=0 note=8 velocity=102 time=486", "time": 486}, {"message": "note_on channel=0 note=8 velocity=102 time=462", "time": 462}, {"message": "note_off channel=0 note=8 velocity=102 time=498", "time": 498}, {"message": "note_on channel=0 note=8 velocity=102 time=476", "time": 476}, {"message": "note_off channel=0 note=8 velocity=102 time=484", "time": 484}, {"message": "note_on channel=0 note=8 velocity=102 time=463", "time": 463}, {"message": "note_off channel=0 note=8 velocity=102 time=487", "time": 487}, {"message": "note_on channel=0 note=8 velocity=102 time=471", "time": 471}, {"message": "note_off channel=0 note=8 velocity=102 time=499", "time": 499}, {"message": "note_on channel=0 note=8 velocity=102 time=461", "time": 461}, {"message": "note_off channel=0 note=8 velocity=102 time=487", "time": 487}, {"message": "note_on channel=0 note=8 velocity=102 time=0", "time": 0}, {"message": "note_off channel=0 note=8 velocity=102 time=474", "time": 474}, {"message": "note_on channel=0 note=8 velocity=102 time=0", "time": 0}, {"message": "note_off channel=0 note=8 velocity=102 time=498", "time": 498}, {"message": "note_on channel=0 note=8 velocity=102 time=464", "time": 464}, {"message": "note_off channel=0 note=8 velocity=102 time=496", "time": 496}, {"message": "note_on channel=0 note=8 velocity=102 time=480", "time": 480}, {"message": "note_off channel=0 note=8 velocity=102 time=480", "time": 480}, {"message": "note_on channel=0 note=8 velocity=102 time=477", "time": 477}, {"message": "note_off channel=0 note=8 velocity=102 time=483", "time": 483}, {"message": "note_on channel=0 note=8 velocity=102 time=479", "time": 479}, {"message": "note_off channel=0 note=8 velocity=102 time=481", "time": 481}, {"message": "note_on channel=0 note=8 velocity=102 time=469", "time": 469}, {"message": "note_off channel=0 note=8 velocity=102 time=491", "time": 491}, {"message": "note_on channel=0 note=8 velocity=102 time=468", "time": 468}, {"message": "note_off channel=0 note=8 velocity=102 time=492", "time": 492}, {"message": "note_on channel=0 note=8 velocity=102 time=475", "time": 475}, {"message": "note_off channel=0 note=8 velocity=102 time=481", "time": 481}, {"message": "note_on channel=0 note=8 velocity=102 time=0", "time": 0}, {"message": "note_off channel=0 note=8 velocity=102 time=484", "time": 484}, {"message": "note_on channel=0 note=8 velocity=102 time=3838", "time": 3838}, {"message": "note_off channel=0 note=8 velocity=102 time=482", "time": 482}, {"message": "note_on channel=0 note=8 velocity=102 time=470", "time": 470}, {"message": "note_off channel=0 note=8 velocity=102 time=480", "time": 480}, {"message": "note_on channel=0 note=8 velocity=102 time=488", "time": 488}, {"message": "note_off channel=0 note=8 velocity=102 time=482", "time": 482}, {"message": "note_on channel=0 note=8 velocity=102 time=452", "time": 452}, {"message": "note_off channel=0 note=8 velocity=102 time=494", "time": 494}, {"message": "note_on channel=0 note=8 velocity=102 time=0", "time": 0}, {"message": "note_off channel=0 note=8 velocity=102 time=477", "time": 477}, {"message": "note_on channel=0 note=8 velocity=102 time=0", "time": 0}, {"message": "note_off channel=0 note=8 velocity=102 time=497", "time": 497}, {"message": "note_on channel=0 note=8 velocity=102 time=472", "time": 472}, {"message": "note_off channel=0 note=8 velocity=102 time=488", "time": 488}, {"message": "note_on channel=0 note=8 velocity=102 time=465", "time": 465}, {"message": "note_off channel=0 note=8 velocity=102 time=495", "time": 495}, {"message": "note_on channel=0 note=8 velocity=102 time=478", "time": 478}, {"message": "note_off channel=0 note=8 velocity=102 time=482", "time": 482}, {"message": "note_on channel=0 note=8 velocity=102 time=463", "time": 463}, {"message": "note_off channel=0 note=8 velocity=102 time=497", "time": 497}, {"message": "note_on channel=0 note=8 velocity=102 time=465", "time": 465}, {"message": "note_off channel=0 note=8 velocity=102 time=495", "time": 495}, {"message": "note_on channel=0 note=8 velocity=102 time=480", "time": 480}, {"message": "note_off channel=0 note=8 velocity=102 time=480", "time": 480}, {"message": "note_on channel=0 note=8 velocity=102 time=476", "time": 476}, {"message": "note_off channel=0 note=8 velocity=102 time=473", "time": 473}, {"message": "note_on channel=0 note=8 velocity=102 time=0", "time": 0}, {"message": "note_off channel=0 note=8 velocity=102 time=477", "time": 477}, {"message": "note_on channel=0 note=8 velocity=102 time=0", "time": 0}, {"message": "note_off channel=0 note=8 velocity=102 time=494", "time": 494}, {"message": "note_on channel=0 note=8 velocity=102 time=473", "time": 473}, {"message": "note_off channel=0 note=8 velocity=102 time=487", "time": 487}, {"message": "note_on channel=0 note=8 velocity=102 time=464", "time": 464}, {"message": "note_off channel=0 note=8 velocity=102 time=496", "time": 496}, {"message": "note_on channel=0 note=8 velocity=102 time=473", "time": 473}, {"message": "note_off channel=0 note=8 velocity=102 time=486", "time": 486}, {"message": "note_on channel=0 note=8 velocity=102 time=475", "time": 475}, {"message": "note_off channel=0 note=8 velocity=102 time=486", "time": 486}, {"message": "note_on channel=0 note=8 velocity=102 time=453", "time": 453}, {"message": "note_off channel=0 note=8 velocity=102 time=498", "time": 498}, {"message": "note_on channel=0 note=8 velocity=102 time=487", "time": 487}, {"message": "note_off channel=0 note=8 velocity=102 time=482", "time": 482}, {"message": "note_on channel=0 note=8 velocity=102 time=460", "time": 460}, {"message": "note_off channel=0 note=8 velocity=102 time=487", "time": 487}, {"message": "note_on channel=0 note=8 velocity=102 time=0", "time": 0}, {"message": "note_off channel=0 note=8 velocity=102 time=482", "time": 482}, {"message": "note_on channel=0 note=8 velocity=102 time=0", "time": 0}, {"message": "note_off channel=0 note=8 velocity=102 time=491", "time": 491}, {"message": "note_on channel=0 note=8 velocity=102 time=477", "time": 477}, {"message": "note_off channel=0 note=8 velocity=102 time=483", "time": 483}, {"message": "note_on channel=0 note=8 velocity=102 time=469", "time": 469}, {"message": "note_off channel=0 note=8 velocity=102 time=491", "time": 491}, {"message": "note_on channel=0 note=8 velocity=102 time=472", "time": 472}, {"message": "note_off channel=0 note=8 velocity=102 time=488", "time": 488}, {"message": "note_on channel=0 note=8 velocity=102 time=468", "time": 468}, {"message": "note_off channel=0 note=8 velocity=102 time=492", "time": 492}, {"message": "note_on channel=0 note=8 velocity=102 time=478", "time": 478}, {"message": "note_off channel=0 note=8 velocity=102 time=482", "time": 482}, {"message": "note_on channel=0 note=8 velocity=102 time=469", "time": 469}, {"message": "note_off channel=0 note=8 velocity=102 time=491", "time": 491}, {"message": "note_on channel=0 note=8 velocity=102 time=468", "time": 468}, {"message": "note_off channel=0 note=8 velocity=102 time=475", "time": 475}, {"message": "note_on channel=0 note=8 velocity=102 time=0", "time": 0}, {"message": "note_off channel=0 note=8 velocity=102 time=497", "time": 497}, {"message": "note_on channel=0 note=8 velocity=102 time=3830", "time": 3830}, {"message": "note_off channel=0 note=8 velocity=102 time=490", "time": 490}, {"message": "note_on channel=0 note=8 velocity=102 time=463", "time": 463}, {"message": "note_off channel=0 note=8 velocity=102 time=487", "time": 487}, {"message": "note_on channel=0 note=8 velocity=102 time=489", "time": 489}, {"message": "note_off channel=0 note=8 velocity=102 time=481", "time": 481}, {"message": "note_on channel=0 note=8 velocity=102 time=468", "time": 468}, {"message": "note_off channel=0 note=8 velocity=102 time=475", "time": 475}, {"message": "note_on channel=0 note=8 velocity=102 time=0", "time": 0}, {"message": "note_off channel=0 note=8 velocity=102 time=481", "time": 481}, {"message": "note_on channel=0 note=8 velocity=102 time=0", "time": 0}, {"message": "note_off channel=0 note=8 velocity=102 time=496", "time": 496}, {"message": "note_on channel=0 note=8 velocity=102 time=470", "time": 470}, {"message": "note_off channel=0 note=8 velocity=102 time=490", "time": 490}, {"message": "note_on channel=0 note=8 velocity=102 time=468", "time": 468}, {"message": "note_off channel=0 note=8 velocity=102 time=492", "time": 492}, {"message": "note_on channel=0 note=8 velocity=102 time=466", "time": 466}, {"message": "note_off channel=0 note=8 velocity=102 time=493", "time": 493}, {"message": "note_on channel=0 note=8 velocity=102 time=480", "time": 480}, {"message": "note_off channel=0 note=8 velocity=102 time=481", "time": 481}, {"message": "note_on channel=0 note=8 velocity=102 time=463", "time": 463}, {"message": "note_off channel=0 note=8 velocity=102 time=497", "time": 497}, {"message": "note_on channel=0 note=8 velocity=102 time=476", "time": 476}, {"message": "note_off channel=0 note=8 velocity=102 time=484", "time": 484}, {"message": "note_on channel=0 note=8 velocity=102 time=479", "time": 479}, {"message": "note_off channel=0 note=8 velocity=102 time=477", "time": 477}, {"message": "note_on channel=0 note=8 velocity=102 time=0", "time": 0}, {"message": "note_off channel=0 note=8 velocity=102 time=471", "time": 471}, {"message": "note_on channel=0 note=8 velocity=102 time=0", "time": 0}, {"message": "note_off channel=0 note=8 velocity=102 time=493", "time": 493}, {"message": "note_on channel=0 note=8 velocity=102 time=476", "time": 476}, {"message": "note_off channel=0 note=8 velocity=102 time=483", "time": 483}, {"message": "note_on channel=0 note=8 velocity=102 time=470", "time": 470}, {"message": "note_off channel=0 note=8 velocity=102 time=491", "time": 491}, {"message": "note_on channel=0 note=8 velocity=102 time=471", "time": 471}, {"message": "note_off channel=0 note=8 velocity=102 time=489", "time": 489}, {"message": "note_on channel=0 note=8 velocity=102 time=464", "time": 464}, {"message": "note_off channel=0 note=8 velocity=102 time=496", "time": 496}, {"message": "note_on channel=0 note=8 velocity=102 time=456", "time": 456}, {"message": "note_off channel=0 note=8 velocity=102 time=495", "time": 495}, {"message": "note_on channel=0 note=8 velocity=102 time=488", "time": 488}, {"message": "note_off channel=0 note=8 velocity=102 time=481", "time": 481}, {"message": "note_on channel=0 note=8 velocity=102 time=464", "time": 464}, {"message": "note_off channel=0 note=8 velocity=102 time=478", "time": 478}, {"message": "note_on channel=0 note=8 velocity=102 time=0", "time": 0}, {"message": "note_off channel=0 note=8 velocity=102 time=492", "time": 492}, {"message": "note_on channel=0 note=8 velocity=102 time=0", "time": 0}, {"message": "note_off channel=0 note=8 velocity=102 time=486", "time": 486}, {"message": "note_on channel=0 note=8 velocity=102 time=469", "time": 469}, {"message": "note_off channel=0 note=8 velocity=102 time=491", "time": 491}, {"message": "note_on channel=0 note=8 velocity=102 time=462", "time": 462}, {"message": "note_off channel=0 note=8 velocity=102 time=498", "time": 498}, {"message": "note_on channel=0 note=8 velocity=102 time=478", "time": 478}, {"message": "note_off channel=0 note=8 velocity=102 time=482", "time": 482}, {"message": "note_on channel=0 note=8 velocity=102 time=480", "time": 480}, {"message": "note_off channel=0 note=8 velocity=102 time=480", "time": 480}, {"message": "note_on channel=0 note=8 velocity=102 time=479", "time": 479}, {"message": "note_off channel=0 note=8 velocity=102 time=481", "time": 481}, {"message": "note_on channel=0 note=8 velocity=102 time=464", "time": 464}, {"message": "note_off channel=0 note=8 velocity=102 time=496", "time": 496}, {"message": "note_on channel=0 note=8 velocity=102 time=478", "time": 478}, {"message": "note_off channel=0 note=8 velocity=102 time=478", "time": 478}, {"message": "note_on channel=0 note=8 velocity=102 time=0", "time": 0}, {"message": "note_off channel=0 note=8 velocity=102 time=465", "time": 465}, {"message": "note_on channel=0 note=8 velocity=102 time=0", "time": 0}, {"message": "note_off channel=0 note=8 velocity=102 time=499", "time": 499}, {"message": "note_on channel=0 note=8 velocity=102 time=479", "time": 479}, {"message": "note_off channel=0 note=8 velocity=102 time=481", "time": 481}, {"message": "note_on channel=0 note=8 velocity=102 time=478", "time": 478}, {"message": "note_off channel=0 note=8 velocity=102 time=482", "time": 482}, {"message": "note_on channel=0 note=8 velocity=102 time=478", "time": 478}, {"message": "note_off channel=0 note=8 velocity=102 time=482", "time": 482}, {"message": "MetaMessage('end_of_track', time=0)", "time": 0}]}, {"track": 2, "contents": [{"message": "MetaMessage('track_name', name='Snare', time=0)", "time": 0}, {"message": "note_on channel=0 note=4 velocity=102 time=31676", "time": 31676}, {"message": "note_off channel=0 note=4 velocity=102 time=483", "time": 483}, {"message": "note_on channel=0 note=4 velocity=102 time=1438", "time": 1438}, {"message": "note_off channel=0 note=4 velocity=102 time=482", "time": 482}, {"message": "note_on channel=0 note=4 velocity=102 time=1421", "time": 1421}, {"message": "note_off channel=0 note=4 velocity=102 time=499", "time": 499}, {"message": "note_on channel=0 note=4 velocity=102 time=1426", "time": 1426}, {"message": "note_off channel=0 note=4 velocity=102 time=494", "time": 494}, {"message": "note_on channel=0 note=4 velocity=102 time=1432", "time": 1432}, {"message": "note_off channel=0 note=4 velocity=102 time=488", "time": 488}, {"message": "note_on channel=0 note=4 velocity=102 time=1423", "time": 1423}, {"message": "note_off channel=0 note=4 velocity=102 time=497", "time": 497}, {"message": "note_on channel=0 note=4 velocity=102 time=1424", "time": 1424}, {"message": "note_off channel=0 note=4 velocity=102 time=496", "time": 496}, {"message": "note_on channel=0 note=4 velocity=102 time=1424", "time": 1424}, {"message": "note_off channel=0 note=4 velocity=102 time=496", "time": 496}, {"message": "note_on channel=0 note=4 velocity=102 time=1426", "time": 1426}, {"message": "note_off channel=0 note=4 velocity=102 time=494", "time": 494}, {"message": "note_on channel=0 note=4 velocity=102 time=1427", "time": 1427}, {"message": "note_off channel=0 note=4 velocity=102 time=493", "time": 493}, {"message": "note_on channel=0 note=4 velocity=102 time=1427", "time": 1427}, {"message": "note_off channel=0 note=4 velocity=102 time=493", "time": 493}, {"message": "note_on channel=0 note=4 velocity=102 time=1423", "time": 1423}, {"message": "note_off channel=0 note=4 velocity=102 time=497", "time": 497}, {"message": "note_on channel=0 note=4 velocity=102 time=1426", "time": 1426}, {"message": "note_off channel=0 note=4 velocity=102 time=494", "time": 494}, {"message": "note_on channel=0 note=4 velocity=102 time=1428", "time": 1428}, {"message": "note_off channel=0 note=4 velocity=102 time=492", "time": 492}, {"message": "note_on channel=0 note=4 velocity=102 time=1434", "time": 1434}, {"message": "note_off channel=0 note=4 velocity=102 time=485", "time": 485}, {"message": "note_on channel=0 note=4 velocity=102 time=1432", "time": 1432}, {"message": "note_off channel=0 note=4 velocity=102 time=489", "time": 489}, {"message": "note_on channel=0 note=4 velocity=102 time=1433", "time": 1433}, {"message": "note_off channel=0 note=4 velocity=102 time=487", "time": 487}, {"message": "note_on channel=0 note=4 velocity=102 time=1428", "time": 1428}, {"message": "note_off channel=0 note=4 velocity=102 time=492", "time": 492}, {"message": "note_on channel=0 note=4 velocity=102 time=1434", "time": 1434}, {"message": "note_off channel=0 note=4 velocity=102 time=486", "time": 486}, {"message": "note_on channel=0 note=4 velocity=102 time=1440", "time": 1440}, {"message": "note_off channel=0 note=4 velocity=102 time=480", "time": 480}, {"message": "note_on channel=0 note=4 velocity=102 time=1440", "time": 1440}, {"message": "note_off channel=0 note=4 velocity=102 time=479", "time": 479}, {"message": "note_on channel=0 note=4 velocity=102 time=1430", "time": 1430}, {"message": "note_off channel=0 note=4 velocity=102 time=491", "time": 491}, {"message": "note_on channel=0 note=4 velocity=102 time=1431", "time": 1431}, {"message": "note_off channel=0 note=4 velocity=102 time=489", "time": 489}, {"message": "note_on channel=0 note=4 velocity=102 time=1423", "time": 1423}, {"message": "note_off channel=0 note=4 velocity=102 time=497", "time": 497}, {"message": "note_on channel=0 note=4 velocity=102 time=1436", "time": 1436}, {"message": "note_off channel=0 note=4 velocity=102 time=484", "time": 484}, {"message": "note_on channel=0 note=4 velocity=102 time=1435", "time": 1435}, {"message": "note_off channel=0 note=4 velocity=102 time=485", "time": 485}, {"message": "note_on channel=0 note=4 velocity=102 time=1432", "time": 1432}, {"message": "note_off channel=0 note=4 velocity=102 time=488", "time": 488}, {"message": "note_on channel=0 note=4 velocity=102 time=1422", "time": 1422}, {"message": "note_off channel=0 note=4 velocity=102 time=498", "time": 498}, {"message": "note_on channel=0 note=4 velocity=102 time=1431", "time": 1431}, {"message": "note_off channel=0 note=4 velocity=102 time=489", "time": 489}, {"message": "note_on channel=0 note=4 velocity=102 time=1431", "time": 1431}, {"message": "note_off channel=0 note=4 velocity=102 time=489", "time": 489}, {"message": "note_on channel=0 note=4 velocity=102 time=1427", "time": 1427}, {"message": "note_off channel=0 note=4 velocity=102 time=493", "time": 493}, {"message": "note_on channel=0 note=4 velocity=102 time=1427", "time": 1427}, {"message": "note_off channel=0 note=4 velocity=102 time=493", "time": 493}, {"message": "note_on channel=0 note=4 velocity=102 time=1433", "time": 1433}, {"message": "note_off channel=0 note=4 velocity=102 time=487", "time": 487}, {"message": "note_on channel=0 note=4 velocity=102 time=1429", "time": 1429}, {"message": "note_off channel=0 note=4 velocity=102 time=491", "time": 491}, {"message": "note_on channel=0 note=4 velocity=102 time=1440", "time": 1440}, {"message": "note_off channel=0 note=4 velocity=102 time=480", "time": 480}, {"message": "note_on channel=0 note=4 velocity=102 time=1437", "time": 1437}, {"message": "note_off channel=0 note=4 velocity=102 time=483", "time": 483}, {"message": "note_on channel=0 note=4 velocity=102 time=1427", "time": 1427}, {"message": "note_off channel=0 note=4 velocity=102 time=493", "time": 493}, {"message": "note_on channel=0 note=4 velocity=102 time=1424", "time": 1424}, {"message": "note_off channel=0 note=4 velocity=102 time=496", "time": 496}, {"message": "note_on channel=0 note=4 velocity=102 time=1434", "time": 1434}, {"message": "note_off channel=0 note=4 velocity=102 time=486", "time": 486}, {"message": "note_on channel=0 note=4 velocity=102 time=1427", "time": 1427}, {"message": "note_off channel=0 note=4 velocity=102 time=493", "time": 493}, {"message": "note_on channel=0 note=4 velocity=102 time=1422", "time": 1422}, {"message": "note_off channel=0 note=4 velocity=102 time=498", "time": 498}, {"message": "note_on channel=0 note=4 velocity=102 time=1437", "time": 1437}, {"message": "note_off channel=0 note=4 velocity=102 time=483", "time": 483}, {"message": "note_on channel=0 note=4 velocity=102 time=1422", "time": 1422}, {"message": "note_off channel=0 note=4 velocity=102 time=498", "time": 498}, {"message": "note_on channel=0 note=4 velocity=102 time=1428", "time": 1428}, {"message": "note_off channel=0 note=4 velocity=102 time=492", "time": 492}, {"message": "note_on channel=0 note=4 velocity=102 time=1425", "time": 1425}, {"message": "note_off channel=0 note=4 velocity=102 time=495", "time": 495}, {"message": "note_on channel=0 note=4 velocity=102 time=1437", "time": 1437}, {"message": "note_off channel=0 note=4 velocity=102 time=483", "time": 483}, {"message": "note_on channel=0 note=4 velocity=102 time=1437", "time": 1437}, {"message": "note_off channel=0 note=4 velocity=102 time=483", "time": 483}, {"message": "note_on channel=0 note=4 velocity=102 time=1436", "time": 1436}, {"message": "note_off channel=0 note=4 velocity=102 time=484", "time": 484}, {"message": "note_on channel=0 note=4 velocity=102 time=1423", "time": 1423}, {"message": "note_off channel=0 note=4 velocity=102 time=497", "time": 497}, {"message": "note_on channel=0 note=4 velocity=102 time=1433", "time": 1433}, {"message": "note_off channel=0 note=4 velocity=102 time=487", "time": 487}, {"message": "note_on channel=0 note=4 velocity=102 time=1427", "time": 1427}, {"message": "note_off channel=0 note=4 velocity=102 time=493", "time": 493}, {"message": "note_on channel=0 note=4 velocity=102 time=1435", "time": 1435}, {"message": "note_off channel=0 note=4 velocity=102 time=485", "time": 485}, {"message": "note_on channel=0 note=4 velocity=102 time=1436", "time": 1436}, {"message": "note_off channel=0 note=4 velocity=102 time=484", "time": 484}, {"message": "note_on channel=0 note=4 velocity=102 time=1435", "time": 1435}, {"message": "note_off channel=0 note=4 velocity=102 time=485", "time": 485}, {"message": "note_on channel=0 note=4 velocity=102 time=1435", "time": 1435}, {"message": "note_off channel=0 note=4 velocity=102 time=484", "time": 484}, {"message": "note_on channel=0 note=4 velocity=102 time=1441", "time": 1441}, {"message": "note_off channel=0 note=4 velocity=102 time=480", "time": 480}, {"message": "note_on channel=0 note=4 velocity=102 time=1432", "time": 1432}, {"message": "note_off channel=0 note=4 velocity=102 time=488", "time": 488}, {"message": "note_on channel=0 note=4 velocity=102 time=1422", "time": 1422}, {"message": "note_off channel=0 note=4 velocity=102 time=498", "time": 498}, {"message": "note_on channel=0 note=4 velocity=102 time=1426", "time": 1426}, {"message": "note_off channel=0 note=4 velocity=102 time=494", "time": 494}, {"message": "note_on channel=0 note=4 velocity=102 time=1425", "time": 1425}, {"message": "note_off channel=0 note=4 velocity=102 time=495", "time": 495}, {"message": "note_on channel=0 note=4 velocity=102 time=1422", "time": 1422}, {"message": "note_off channel=0 note=4 velocity=102 time=498", "time": 498}, {"message": "note_on channel=0 note=4 velocity=102 time=1432", "time": 1432}, {"message": "note_off channel=0 note=4 velocity=102 time=488", "time": 488}, {"message": "note_on channel=0 note=4 velocity=102 time=1425", "time": 1425}, {"message": "note_off channel=0 note=4 velocity=102 time=495", "time": 495}, {"message": "note_on channel=0 note=4 velocity=102 time=1440", "time": 1440}, {"message": "note_off channel=0 note=4 velocity=102 time=480", "time": 480}, {"message": "note_on channel=0 note=4 velocity=102 time=1436", "time": 1436}, {"message": "note_off channel=0 note=4 velocity=102 time=484", "time": 484}, {"message": "note_on channel=0 note=4 velocity=102 time=1439", "time": 1439}, {"message": "note_off channel=0 note=4 velocity=102 time=481", "time": 481}, {"message": "note_on channel=0 note=4 velocity=102 time=1422", "time": 1422}, {"message": "note_off channel=0 note=4 velocity=102 time=498", "time": 498}, {"message": "note_on channel=0 note=4 velocity=102 time=1429", "time": 1429}, {"message": "note_off channel=0 note=4 velocity=102 time=491", "time": 491}, {"message": "note_on channel=0 note=4 velocity=102 time=1430", "time": 1430}, {"message": "note_off channel=0 note=4 velocity=102 time=490", "time": 490}, {"message": "note_on channel=0 note=4 velocity=102 time=1438", "time": 1438}, {"message": "note_off channel=0 note=4 velocity=102 time=481", "time": 481}, {"message": "note_on channel=0 note=4 velocity=102 time=1438", "time": 1438}, {"message": "note_off channel=0 note=4 velocity=102 time=483", "time": 483}, {"message": "note_on channel=0 note=4 velocity=102 time=1422", "time": 1422}, {"message": "note_off channel=0 note=4 velocity=102 time=498", "time": 498}, {"message": "note_on channel=0 note=4 velocity=102 time=1428", "time": 1428}, {"message": "note_off channel=0 note=4 velocity=102 time=492", "time": 492}, {"message": "note_on channel=0 note=4 velocity=102 time=1421", "time": 1421}, {"message": "note_off channel=0 note=4 velocity=102 time=499", "time": 499}, {"message": "note_on channel=0 note=4 velocity=102 time=1436", "time": 1436}, {"message": "note_off channel=0 note=4 velocity=102 time=484", "time": 484}, {"message": "note_on channel=0 note=4 velocity=102 time=1422", "time": 1422}, {"message": "note_off channel=0 note=4 velocity=102 time=497", "time": 497}, {"message": "note_on channel=0 note=4 velocity=102 time=1427", "time": 1427}, {"message": "note_off channel=0 note=4 velocity=102 time=494", "time": 494}, {"message": "note_on channel=0 note=4 velocity=102 time=1423", "time": 1423}, {"message": "note_off channel=0 note=4 velocity=102 time=497", "time": 497}, {"message": "note_on channel=0 note=4 velocity=102 time=1432", "time": 1432}, {"message": "note_off channel=0 note=4 velocity=102 time=487", "time": 487}, {"message": "note_on channel=0 note=4 velocity=102 time=1423", "time": 1423}, {"message": "note_off channel=0 note=4 velocity=102 time=498", "time": 498}, {"message": "note_on channel=0 note=4 velocity=102 time=1430", "time": 1430}, {"message": "note_off channel=0 note=4 velocity=102 time=490", "time": 490}, {"message": "note_on channel=0 note=4 velocity=102 time=1440", "time": 1440}, {"message": "note_off channel=0 note=4 velocity=102 time=480", "time": 480}, {"message": "note_on channel=0 note=4 velocity=102 time=1421", "time": 1421}, {"message": "note_off channel=0 note=4 velocity=102 time=499", "time": 499}, {"message": "note_on channel=0 note=4 velocity=102 time=1438", "time": 1438}, {"message": "note_off channel=0 note=4 velocity=102 time=482", "time": 482}, {"message": "note_on channel=0 note=4 velocity=102 time=1440", "time": 1440}, {"message": "note_off channel=0 note=4 velocity=102 time=480", "time": 480}, {"message": "note_on channel=0 note=4 velocity=102 time=1430", "time": 1430}, {"message": "note_off channel=0 note=4 velocity=102 time=490", "time": 490}, {"message": "note_on channel=0 note=4 velocity=102 time=1421", "time": 1421}, {"message": "note_off channel=0 note=4 velocity=102 time=499", "time": 499}, {"message": "note_on channel=0 note=4 velocity=102 time=1437", "time": 1437}, {"message": "note_off channel=0 note=4 velocity=102 time=483", "time": 483}, {"message": "note_on channel=0 note=4 velocity=102 time=1421", "time": 1421}, {"message": "note_off channel=0 note=4 velocity=102 time=499", "time": 499}, {"message": "note_on channel=0 note=4 velocity=102 time=1432", "time": 1432}, {"message": "note_off channel=0 note=4 velocity=102 time=487", "time": 487}, {"message": "note_on channel=0 note=4 velocity=102 time=1435", "time": 1435}, {"message": "note_off channel=0 note=4 velocity=102 time=486", "time": 486}, {"message": "note_on channel=0 note=4 velocity=102 time=1440", "time": 1440}, {"message": "note_off channel=0 note=4 velocity=102 time=480", "time": 480}, {"message": "note_on channel=0 note=4 velocity=102 time=1431", "time": 1431}, {"message": "note_off channel=0 note=4 velocity=102 time=489", "time": 489}, {"message": "note_on channel=0 note=4 velocity=102 time=1421", "time": 1421}, {"message": "note_off channel=0 note=4 velocity=102 time=499", "time": 499}, {"message": "note_on channel=0 note=4 velocity=102 time=1430", "time": 1430}, {"message": "note_off channel=0 note=4 velocity=102 time=490", "time": 490}, {"message": "note_on channel=0 note=4 velocity=102 time=1434", "time": 1434}, {"message": "note_off channel=0 note=4 velocity=102 time=486", "time": 486}, {"message": "MetaMessage('end_of_track', time=0)", "time": 0}]}, {"track": 3, "contents": [{"message": "MetaMessage('track_name', name='CLHat', time=0)", "time": 0}, {"message": "note_on channel=0 note=0 velocity=102 time=15675", "time": 15675}, {"message": "note_off channel=0 note=0 velocity=102 time=164", "time": 164}, {"message": "note_on channel=0 note=0 velocity=102 time=313", "time": 313}, {"message": "note_off channel=0 note=0 velocity=102 time=167", "time": 167}, {"message": "note_on channel=0 note=0 velocity=102 time=316", "time": 316}, {"message": "note_off channel=0 note=0 velocity=102 time=164", "time": 164}, {"message": "note_on channel=0 note=0 velocity=102 time=315", "time": 315}, {"message": "note_off channel=0 note=0 velocity=102 time=164", "time": 164}, {"message": "note_on channel=0 note=0 velocity=102 time=316", "time": 316}, {"message": "note_off channel=0 note=0 velocity=102 time=165", "time": 165}, {"message": "note_on channel=0 note=0 velocity=102 time=309", "time": 309}, {"message": "note_off channel=0 note=0 velocity=102 time=171", "time": 171}, {"message": "note_on channel=0 note=0 velocity=102 time=312", "time": 312}, {"message": "note_off channel=0 note=0 velocity=102 time=168", "time": 168}, {"message": "note_on channel=0 note=0 velocity=102 time=301", "time": 301}, {"message": "note_off channel=0 note=0 velocity=102 time=179", "time": 179}, {"message": "note_on channel=0 note=0 velocity=102 time=312", "time": 312}, {"message": "note_off channel=0 note=0 velocity=102 time=168", "time": 168}, {"message": "note_on channel=0 note=0 velocity=102 time=306", "time": 306}, {"message": "note_off channel=0 note=0 velocity=102 time=174", "time": 174}, {"message": "note_on channel=0 note=0 velocity=102 time=306", "time": 306}, {"message": "note_off channel=0 note=0 velocity=102 time=174", "time": 174}, {"message": "note_on channel=0 note=0 velocity=102 time=314", "time": 314}, {"message": "note_off channel=0 note=0 velocity=102 time=166", "time": 166}, {"message": "note_on channel=0 note=0 velocity=102 time=307", "time": 307}, {"message": "note_off channel=0 note=0 velocity=102 time=173", "time": 173}, {"message": "note_on channel=0 note=0 velocity=102 time=312", "time": 312}, {"message": "note_off channel=0 note=0 velocity=102 time=168", "time": 168}, {"message": "note_on channel=0 note=0 velocity=102 time=306", "time": 306}, {"message": "note_off channel=0 note=0 velocity=102 time=174", "time": 174}, {"message": "note_on channel=0 note=0 velocity=102 time=311", "time": 311}, {"message": "note_off channel=0 note=0 velocity=102 time=168", "time": 168}, {"message": "note_on channel=0 note=0 velocity=102 time=302", "time": 302}, {"message": "note_off channel=0 note=0 velocity=102 time=179", "time": 179}, {"message": "note_on channel=0 note=0 velocity=102 time=311", "time": 311}, {"message": "note_off channel=0 note=0 velocity=102 time=169", "time": 169}, {"message": "note_on channel=0 note=0 velocity=102 time=314", "time": 314}, {"message": "note_off channel=0 note=0 velocity=102 time=166", "time": 166}, {"message": "note_on channel=0 note=0 velocity=102 time=316", "time": 316}, {"message": "note_off channel=0 note=0 velocity=102 time=164", "time": 164}, {"message": "note_on channel=0 note=0 velocity=102 time=307", "time": 307}, {"message": "note_off channel=0 note=0 velocity=102 time=173", "time": 173}, {"message": "note_on channel=0 note=0 velocity=102 time=312", "time": 312}, {"message": "note_off channel=0 note=0 velocity=102 time=168", "time": 168}, {"message": "note_on channel=0 note=0 velocity=102 time=310", "time": 310}, {"message": "note_off channel=0 note=0 velocity=102 time=170", "time": 170}, {"message": "note_on channel=0 note=0 velocity=102 time=302", "time": 302}, {"message": "note_off channel=0 note=0 velocity=102 time=178", "time": 178}, {"message": "note_on channel=0 note=0 velocity=102 time=320", "time": 320}, {"message": "note_off channel=0 note=0 velocity=102 time=160", "time": 160}, {"message": "note_on channel=0 note=0 velocity=102 time=308", "time": 308}, {"message": "note_off channel=0 note=0 velocity=102 time=172", "time": 172}, {"message": "note_on channel=0 note=0 velocity=102 time=302", "time": 302}, {"message": "note_off channel=0 note=0 velocity=102 time=178", "time": 178}, {"message": "note_on channel=0 note=0 velocity=102 time=314", "time": 314}, {"message": "note_off channel=0 note=0 velocity=102 time=166", "time": 166}, {"message": "note_on channel=0 note=0 velocity=102 time=302", "time": 302}, {"message": "note_off channel=0 note=0 velocity=102 time=178", "time": 178}, {"message": "note_on channel=0 note=0 velocity=102 time=304", "time": 304}, {"message": "note_off channel=0 note=0 velocity=102 time=176", "time": 176}, {"message": "note_on channel=0 note=0 velocity=102 time=319", "time": 319}, {"message": "note_off channel=0 note=0 velocity=102 time=161", "time": 161}, {"message": "note_on channel=0 note=0 velocity=102 time=306", "time": 306}, {"message": "note_off channel=0 note=0 velocity=102 time=174", "time": 174}, {"message": "note_on channel=0 note=0 velocity=102 time=309", "time": 309}, {"message": "note_off channel=0 note=0 velocity=102 time=171", "time": 171}, {"message": "note_on channel=0 note=0 velocity=102 time=320", "time": 320}, {"message": "note_off channel=0 note=0 velocity=102 time=160", "time": 160}, {"message": "note_on channel=0 note=0 velocity=102 time=313", "time": 313}, {"message": "note_off channel=0 note=0 velocity=102 time=167", "time": 167}, {"message": "note_on channel=0 note=0 velocity=102 time=306", "time": 306}, {"message": "note_off channel=0 note=0 velocity=102 time=174", "time": 174}, {"message": "note_on channel=0 note=0 velocity=102 time=311", "time": 311}, {"message": "note_off channel=0 note=0 velocity=102 time=169", "time": 169}, {"message": "note_on channel=0 note=0 velocity=102 time=308", "time": 308}, {"message": "note_off channel=0 note=0 velocity=102 time=172", "time": 172}, {"message": "note_on channel=0 note=0 velocity=102 time=308", "time": 308}, {"message": "note_off channel=0 note=0 velocity=102 time=172", "time": 172}, {"message": "note_on channel=0 note=0 velocity=102 time=304", "time": 304}, {"message": "note_off channel=0 note=0 velocity=102 time=176", "time": 176}, {"message": "note_on channel=0 note=0 velocity=102 time=309", "time": 309}, {"message": "note_off channel=0 note=0 velocity=102 time=171", "time": 171}, {"message": "note_on channel=0 note=0 velocity=102 time=319", "time": 319}, {"message": "note_off channel=0 note=0 velocity=102 time=161", "time": 161}, {"message": "note_on channel=0 note=0 velocity=102 time=307", "time": 307}, {"message": "note_off channel=0 note=0 velocity=102 time=172", "time": 172}, {"message": "note_on channel=0 note=0 velocity=102 time=306", "time": 306}, {"message": "note_off channel=0 note=0 velocity=102 time=175", "time": 175}, {"message": "note_on channel=0 note=0 velocity=102 time=300", "time": 300}, {"message": "note_off channel=0 note=0 velocity=102 time=180", "time": 180}, {"message": "note_on channel=0 note=0 velocity=102 time=307", "time": 307}, {"message": "note_off channel=0 note=0 velocity=102 time=173", "time": 173}, {"message": "note_on channel=0 note=0 velocity=102 time=315", "time": 315}, {"message": "note_off channel=0 note=0 velocity=102 time=164", "time": 164}, {"message": "note_on channel=0 note=0 velocity=102 time=308", "time": 308}, {"message": "note_off channel=0 note=0 velocity=102 time=173", "time": 173}, {"message": "note_on channel=0 note=0 velocity=102 time=309", "time": 309}, {"message": "note_off channel=0 note=0 velocity=102 time=171", "time": 171}, {"message": "note_on channel=0 note=0 velocity=102 time=312", "time": 312}, {"message": "note_off channel=0 note=0 velocity=102 time=168", "time": 168}, {"message": "note_on channel=0 note=0 velocity=102 time=314", "time": 314}, {"message": "note_off channel=0 note=0 velocity=102 time=166", "time": 166}, {"message": "note_on channel=0 note=0 velocity=102 time=306", "time": 306}, {"message": "note_off channel=0 note=0 velocity=102 time=174", "time": 174}, {"message": "note_on channel=0 note=0 velocity=102 time=304", "time": 304}, {"message": "note_off channel=0 note=0 velocity=102 time=176", "time": 176}, {"message": "note_on channel=0 note=0 velocity=102 time=314", "time": 314}, {"message": "note_off channel=0 note=0 velocity=102 time=166", "time": 166}, {"message": "note_on channel=0 note=0 velocity=102 time=301", "time": 301}, {"message": "note_off channel=0 note=0 velocity=102 time=179", "time": 179}, {"message": "note_on channel=0 note=0 velocity=102 time=303", "time": 303}, {"message": "note_off channel=0 note=0 velocity=102 time=177", "time": 177}, {"message": "note_on channel=0 note=0 velocity=102 time=309", "time": 309}, {"message": "note_off channel=0 note=0 velocity=102 time=171", "time": 171}, {"message": "note_on channel=0 note=0 velocity=102 time=318", "time": 318}, {"message": "note_off channel=0 note=0 velocity=102 time=162", "time": 162}, {"message": "note_on channel=0 note=0 velocity=102 time=308", "time": 308}, {"message": "note_off channel=0 note=0 velocity=102 time=172", "time": 172}, {"message": "note_on channel=0 note=0 velocity=102 time=303", "time": 303}, {"message": "note_off channel=0 note=0 velocity=102 time=177", "time": 177}, {"message": "note_on channel=0 note=0 velocity=102 time=304", "time": 304}, {"message": "note_off channel=0 note=0 velocity=102 time=175", "time": 175}, {"message": "note_on channel=0 note=0 velocity=102 time=317", "time": 317}, {"message": "note_off channel=0 note=0 velocity=102 time=164", "time": 164}, {"message": "note_on channel=0 note=0 velocity=102 time=308", "time": 308}, {"message": "note_off channel=0 note=0 velocity=102 time=172", "time": 172}, {"message": "note_on channel=0 note=0 velocity=102 time=318", "time": 318}, {"message": "note_off channel=0 note=0 velocity=102 time=162", "time": 162}, {"message": "note_on channel=0 note=0 velocity=102 time=312", "time": 312}, {"message": "note_off channel=0 note=0 velocity=102 time=168", "time": 168}, {"message": "note_on channel=0 note=0 velocity=102 time=305", "time": 305}, {"message": "note_off channel=0 note=0 velocity=102 time=175", "time": 175}, {"message": "note_on channel=0 note=0 velocity=102 time=314", "time": 314}, {"message": "note_off channel=0 note=0 velocity=102 time=166", "time": 166}, {"message": "note_on channel=0 note=0 velocity=102 time=301", "time": 301}, {"message": "note_off channel=0 note=0 velocity=102 time=179", "time": 179}, {"message": "note_on channel=0 note=0 velocity=102 time=310", "time": 310}, {"message": "note_off channel=0 note=0 velocity=102 time=169", "time": 169}, {"message": "note_on channel=0 note=0 velocity=102 time=303", "time": 303}, {"message": "note_off channel=0 note=0 velocity=102 time=178", "time": 178}, {"message": "note_on channel=0 note=0 velocity=102 time=312", "time": 312}, {"message": "note_off channel=0 note=0 velocity=102 time=168", "time": 168}, {"message": "note_on channel=0 note=0 velocity=102 time=303", "time": 303}, {"message": "note_off channel=0 note=0 velocity=102 time=177", "time": 177}, {"message": "note_on channel=0 note=0 velocity=102 time=314", "time": 314}, {"message": "note_off channel=0 note=0 velocity=102 time=166", "time": 166}, {"message": "note_on channel=0 note=0 velocity=102 time=303", "time": 303}, {"message": "note_off channel=0 note=0 velocity=102 time=177", "time": 177}, {"message": "note_on channel=0 note=0 velocity=102 time=311", "time": 311}, {"message": "note_off channel=0 note=0 velocity=102 time=169", "time": 169}, {"message": "note_on channel=0 note=0 velocity=102 time=304", "time": 304}, {"message": "note_off channel=0 note=0 velocity=102 time=176", "time": 176}, {"message": "note_on channel=0 note=0 velocity=102 time=312", "time": 312}, {"message": "note_off channel=0 note=0 velocity=102 time=168", "time": 168}, {"message": "note_on channel=0 note=0 velocity=102 time=304", "time": 304}, {"message": "note_off channel=0 note=0 velocity=102 time=175", "time": 175}, {"message": "note_on channel=0 note=0 velocity=102 time=307", "time": 307}, {"message": "note_off channel=0 note=0 velocity=102 time=174", "time": 174}, {"message": "note_on channel=0 note=0 velocity=102 time=307", "time": 307}, {"message": "note_off channel=0 note=0 velocity=102 time=173", "time": 173}, {"message": "note_on channel=0 note=0 velocity=102 time=307", "time": 307}, {"message": "note_off channel=0 note=0 velocity=102 time=173", "time": 173}, {"message": "note_on channel=0 note=0 velocity=102 time=312", "time": 312}, {"message": "note_off channel=0 note=0 velocity=102 time=168", "time": 168}, {"message": "note_on channel=0 note=0 velocity=102 time=309", "time": 309}, {"message": "note_off channel=0 note=0 velocity=102 time=171", "time": 171}, {"message": "note_on channel=0 note=0 velocity=102 time=304", "time": 304}, {"message": "note_off channel=0 note=0 velocity=102 time=176", "time": 176}, {"message": "note_on channel=0 note=0 velocity=102 time=303", "time": 303}, {"message": "note_off channel=0 note=0 velocity=102 time=177", "time": 177}, {"message": "note_on channel=0 note=0 velocity=102 time=300", "time": 300}, {"message": "note_off channel=0 note=0 velocity=102 time=179", "time": 179}, {"message": "note_on channel=0 note=0 velocity=102 time=309", "time": 309}, {"message": "note_off channel=0 note=0 velocity=102 time=172", "time": 172}, {"message": "note_on channel=0 note=0 velocity=102 time=302", "time": 302}, {"message": "note_off channel=0 note=0 velocity=102 time=178", "time": 178}, {"message": "note_on channel=0 note=0 velocity=102 time=309", "time": 309}, {"message": "note_off channel=0 note=0 velocity=102 time=171", "time": 171}, {"message": "note_on channel=0 note=0 velocity=102 time=314", "time": 314}, {"message": "note_off channel=0 note=0 velocity=102 time=166", "time": 166}, {"message": "note_on channel=0 note=0 velocity=102 time=314", "time": 314}, {"message": "note_off channel=0 note=0 velocity=102 time=166", "time": 166}, {"message": "note_on channel=0 note=0 velocity=102 time=317", "time": 317}, {"message": "note_off channel=0 note=0 velocity=102 time=163", "time": 163}, {"message": "note_on channel=0 note=0 velocity=102 time=320", "time": 320}, {"message": "note_off channel=0 note=0 velocity=102 time=160", "time": 160}, {"message": "note_on channel=0 note=0 velocity=102 time=307", "time": 307}, {"message": "note_off channel=0 note=0 velocity=102 time=173", "time": 173}, {"message": "note_on channel=0 note=0 velocity=102 time=320", "time": 320}, {"message": "note_off channel=0 note=0 velocity=102 time=160", "time": 160}, {"message": "note_on channel=0 note=0 velocity=102 time=312", "time": 312}, {"message": "note_off channel=0 note=0 velocity=102 time=168", "time": 168}, {"message": "note_on channel=0 note=0 velocity=102 time=317", "time": 317}, {"message": "note_off channel=0 note=0 velocity=102 time=162", "time": 162}, {"message": "note_on channel=0 note=0 velocity=102 time=303", "time": 303}, {"message": "note_off channel=0 note=0 velocity=102 time=178", "time": 178}, {"message": "note_on channel=0 note=0 velocity=102 time=319", "time": 319}, {"message": "note_off channel=0 note=0 velocity=102 time=161", "time": 161}, {"message": "note_on channel=0 note=0 velocity=102 time=302", "time": 302}, {"message": "note_off channel=0 note=0 velocity=102 time=177", "time": 177}, {"message": "note_on channel=0 note=0 velocity=102 time=318", "time": 318}, {"message": "note_off channel=0 note=0 velocity=102 time=163", "time": 163}, {"message": "note_on channel=0 note=0 velocity=102 time=302", "time": 302}, {"message": "note_off channel=0 note=0 velocity=102 time=178", "time": 178}, {"message": "note_on channel=0 note=0 velocity=102 time=309", "time": 309}, {"message": "note_off channel=0 note=0 velocity=102 time=171", "time": 171}, {"message": "note_on channel=0 note=0 velocity=102 time=304", "time": 304}, {"message": "note_off channel=0 note=0 velocity=102 time=176", "time": 176}, {"message": "note_on channel=0 note=0 velocity=102 time=304", "time": 304}, {"message": "note_off channel=0 note=0 velocity=102 time=176", "time": 176}, {"message": "note_on channel=0 note=0 velocity=102 time=317", "time": 317}, {"message": "note_off channel=0 note=0 velocity=102 time=163", "time": 163}, {"message": "note_on channel=0 note=0 velocity=102 time=311", "time": 311}, {"message": "note_off channel=0 note=0 velocity=102 time=169", "time": 169}, {"message": "note_on channel=0 note=0 velocity=102 time=302", "time": 302}, {"message": "note_off channel=0 note=0 velocity=102 time=178", "time": 178}, {"message": "note_on channel=0 note=0 velocity=102 time=313", "time": 313}, {"message": "note_off channel=0 note=0 velocity=102 time=167", "time": 167}, {"message": "note_on channel=0 note=0 velocity=102 time=307", "time": 307}, {"message": "note_off channel=0 note=0 velocity=102 time=173", "time": 173}, {"message": "note_on channel=0 note=0 velocity=102 time=304", "time": 304}, {"message": "note_off channel=0 note=0 velocity=102 time=175", "time": 175}, {"message": "note_on channel=0 note=0 velocity=102 time=305", "time": 305}, {"message": "note_off channel=0 note=0 velocity=102 time=176", "time": 176}, {"message": "note_on channel=0 note=0 velocity=102 time=313", "time": 313}, {"message": "note_off channel=0 note=0 velocity=102 time=167", "time": 167}, {"message": "note_on channel=0 note=0 velocity=102 time=300", "time": 300}, {"message": "note_off channel=0 note=0 velocity=102 time=179", "time": 179}, {"message": "note_on channel=0 note=0 velocity=102 time=301", "time": 301}, {"message": "note_off channel=0 note=0 velocity=102 time=180", "time": 180}, {"message": "note_on channel=0 note=0 velocity=102 time=311", "time": 311}, {"message": "note_off channel=0 note=0 velocity=102 time=169", "time": 169}, {"message": "note_on channel=0 note=0 velocity=102 time=314", "time": 314}, {"message": "note_off channel=0 note=0 velocity=102 time=166", "time": 166}, {"message": "note_on channel=0 note=0 velocity=102 time=304", "time": 304}, {"message": "note_off channel=0 note=0 velocity=102 time=176", "time": 176}, {"message": "note_on channel=0 note=0 velocity=102 time=304", "time": 304}, {"message": "note_off channel=0 note=0 velocity=102 time=175", "time": 175}, {"message": "note_on channel=0 note=0 velocity=102 time=306", "time": 306}, {"message": "note_off channel=0 note=0 velocity=102 time=174", "time": 174}, {"message": "note_on channel=0 note=0 velocity=102 time=317", "time": 317}, {"message": "note_off channel=0 note=0 velocity=102 time=164", "time": 164}, {"message": "note_on channel=0 note=0 velocity=102 time=317", "time": 317}, {"message": "note_off channel=0 note=0 velocity=102 time=163", "time": 163}, {"message": "note_on channel=0 note=0 velocity=102 time=312", "time": 312}, {"message": "note_off channel=0 note=0 velocity=102 time=168", "time": 168}, {"message": "note_on channel=0 note=0 velocity=102 time=308", "time": 308}, {"message": "note_off channel=0 note=0 velocity=102 time=172", "time": 172}, {"message": "note_on channel=0 note=0 velocity=102 time=318", "time": 318}, {"message": "note_off channel=0 note=0 velocity=102 time=162", "time": 162}, {"message": "note_on channel=0 note=0 velocity=102 time=316", "time": 316}, {"message": "note_off channel=0 note=0 velocity=102 time=164", "time": 164}, {"message": "note_on channel=0 note=0 velocity=102 time=309", "time": 309}, {"message": "note_off channel=0 note=0 velocity=102 time=171", "time": 171}, {"message": "note_on channel=0 note=0 velocity=102 time=313", "time": 313}, {"message": "note_off channel=0 note=0 velocity=102 time=167", "time": 167}, {"message": "note_on channel=0 note=0 velocity=102 time=311", "time": 311}, {"message": "note_off channel=0 note=0 velocity=102 time=169", "time": 169}, {"message": "note_on channel=0 note=0 velocity=102 time=307", "time": 307}, {"message": "note_off channel=0 note=0 velocity=102 time=173", "time": 173}, {"message": "note_on channel=0 note=0 velocity=102 time=314", "time": 314}, {"message": "note_off channel=0 note=0 velocity=102 time=166", "time": 166}, {"message": "note_on channel=0 note=0 velocity=102 time=306", "time": 306}, {"message": "note_off channel=0 note=0 velocity=102 time=174", "time": 174}, {"message": "note_on channel=0 note=0 velocity=102 time=306", "time": 306}, {"message": "note_off channel=0 note=0 velocity=102 time=174", "time": 174}, {"message": "note_on channel=0 note=0 velocity=102 time=310", "time": 310}, {"message": "note_off channel=0 note=0 velocity=102 time=170", "time": 170}, {"message": "note_on channel=0 note=0 velocity=102 time=314", "time": 314}, {"message": "note_off channel=0 note=0 velocity=102 time=166", "time": 166}, {"message": "note_on channel=0 note=0 velocity=102 time=317", "time": 317}, {"message": "note_off channel=0 note=0 velocity=102 time=163", "time": 163}, {"message": "note_on channel=0 note=0 velocity=102 time=311", "time": 311}, {"message": "note_off channel=0 note=0 velocity=102 time=169", "time": 169}, {"message": "note_on channel=0 note=0 velocity=102 time=319", "time": 319}, {"message": "note_off channel=0 note=0 velocity=102 time=161", "time": 161}, {"message": "note_on channel=0 note=0 velocity=102 time=313", "time": 313}, {"message": "note_off channel=0 note=0 velocity=102 time=167", "time": 167}, {"message": "note_on channel=0 note=0 velocity=102 time=302", "time": 302}, {"message": "note_off channel=0 note=0 velocity=102 time=178", "time": 178}, {"message": "note_on channel=0 note=0 velocity=102 time=312", "time": 312}, {"message": "note_off channel=0 note=0 velocity=102 time=168", "time": 168}, {"message": "note_on channel=0 note=0 velocity=102 time=316", "time": 316}, {"message": "note_off channel=0 note=0 velocity=102 time=164", "time": 164}, {"message": "note_on channel=0 note=0 velocity=102 time=306", "time": 306}, {"message": "note_off channel=0 note=0 velocity=102 time=174", "time": 174}, {"message": "note_on channel=0 note=0 velocity=102 time=314", "time": 314}, {"message": "note_off channel=0 note=0 velocity=102 time=165", "time": 165}, {"message": "note_on channel=0 note=0 velocity=102 time=319", "time": 319}, {"message": "note_off channel=0 note=0 velocity=102 time=162", "time": 162}, {"message": "note_on channel=0 note=0 velocity=102 time=307", "time": 307}, {"message": "note_off channel=0 note=0 velocity=102 time=173", "time": 173}, {"message": "note_on channel=0 note=0 velocity=102 time=319", "time": 319}, {"message": "note_off channel=0 note=0 velocity=102 time=161", "time": 161}, {"message": "note_on channel=0 note=0 velocity=102 time=310", "time": 310}, {"message": "note_off channel=0 note=0 velocity=102 time=170", "time": 170}, {"message": "note_on channel=0 note=0 velocity=102 time=311", "time": 311}, {"message": "note_off channel=0 note=0 velocity=102 time=169", "time": 169}, {"message": "note_on channel=0 note=0 velocity=102 time=311", "time": 311}, {"message": "note_off channel=0 note=0 velocity=102 time=169", "time": 169}, {"message": "note_on channel=0 note=0 velocity=102 time=306", "time": 306}, {"message": "note_off channel=0 note=0 velocity=102 time=174", "time": 174}, {"message": "note_on channel=0 note=0 velocity=102 time=319", "time": 319}, {"message": "note_off channel=0 note=0 velocity=102 time=161", "time": 161}, {"message": "note_on channel=0 note=0 velocity=102 time=302", "time": 302}, {"message": "note_off channel=0 note=0 velocity=102 time=178", "time": 178}, {"message": "note_on channel=0 note=0 velocity=102 time=310", "time": 310}, {"message": "note_off channel=0 note=0 velocity=102 time=170", "time": 170}, {"message": "note_on channel=0 note=0 velocity=102 time=311", "time": 311}, {"message": "note_off channel=0 note=0 velocity=102 time=169", "time": 169}, {"message": "note_on channel=0 note=0 velocity=102 time=301", "time": 301}, {"message": "note_off channel=0 note=0 velocity=102 time=179", "time": 179}, {"message": "note_on channel=0 note=0 velocity=102 time=316", "time": 316}, {"message": "note_off channel=0 note=0 velocity=102 time=164", "time": 164}, {"message": "note_on channel=0 note=0 velocity=102 time=315", "time": 315}, {"message": "note_off channel=0 note=0 velocity=102 time=165", "time": 165}, {"message": "note_on channel=0 note=0 velocity=102 time=313", "time": 313}, {"message": "note_off channel=0 note=0 velocity=102 time=167", "time": 167}, {"message": "note_on channel=0 note=0 velocity=102 time=315", "time": 315}, {"message": "note_off channel=0 note=0 velocity=102 time=165", "time": 165}, {"message": "note_on channel=0 note=0 velocity=102 time=318", "time": 318}, {"message": "note_off channel=0 note=0 velocity=102 time=162", "time": 162}, {"message": "note_on channel=0 note=0 velocity=102 time=302", "time": 302}, {"message": "note_off channel=0 note=0 velocity=102 time=178", "time": 178}, {"message": "note_on channel=0 note=0 velocity=102 time=318", "time": 318}, {"message": "note_off channel=0 note=0 velocity=102 time=162", "time": 162}, {"message": "note_on channel=0 note=0 velocity=102 time=316", "time": 316}, {"message": "note_off channel=0 note=0 velocity=102 time=164", "time": 164}, {"message": "note_on channel=0 note=0 velocity=102 time=320", "time": 320}, {"message": "note_off channel=0 note=0 velocity=102 time=160", "time": 160}, {"message": "note_on channel=0 note=0 velocity=102 time=316", "time": 316}, {"message": "note_off channel=0 note=0 velocity=102 time=164", "time": 164}, {"message": "note_on channel=0 note=0 velocity=102 time=306", "time": 306}, {"message": "note_off channel=0 note=0 velocity=102 time=173", "time": 173}, {"message": "note_on channel=0 note=0 velocity=102 time=317", "time": 317}, {"message": "note_off channel=0 note=0 velocity=102 time=164", "time": 164}, {"message": "note_on channel=0 note=0 velocity=102 time=308", "time": 308}, {"message": "note_off channel=0 note=0 velocity=102 time=172", "time": 172}, {"message": "note_on channel=0 note=0 velocity=102 time=314", "time": 314}, {"message": "note_off channel=0 note=0 velocity=102 time=165", "time": 165}, {"message": "note_on channel=0 note=0 velocity=102 time=308", "time": 308}, {"message": "note_off channel=0 note=0 velocity=102 time=173", "time": 173}, {"message": "note_on channel=0 note=0 velocity=102 time=306", "time": 306}, {"message": "note_off channel=0 note=0 velocity=102 time=174", "time": 174}, {"message": "note_on channel=0 note=0 velocity=102 time=311", "time": 311}, {"message": "note_off channel=0 note=0 velocity=102 time=169", "time": 169}, {"message": "note_on channel=0 note=0 velocity=102 time=312", "time": 312}, {"message": "note_off channel=0 note=0 velocity=102 time=168", "time": 168}, {"message": "note_on channel=0 note=0 velocity=102 time=316", "time": 316}, {"message": "note_off channel=0 note=0 velocity=102 time=164", "time": 164}, {"message": "note_on channel=0 note=0 velocity=102 time=310", "time": 310}, {"message": "note_off channel=0 note=0 velocity=102 time=170", "time": 170}, {"message": "note_on channel=0 note=0 velocity=102 time=307", "time": 307}, {"message": "note_off channel=0 note=0 velocity=102 time=172", "time": 172}, {"message": "note_on channel=0 note=0 velocity=102 time=319", "time": 319}, {"message": "note_off channel=0 note=0 velocity=102 time=162", "time": 162}, {"message": "note_on channel=0 note=0 velocity=102 time=304", "time": 304}, {"message": "note_off channel=0 note=0 velocity=102 time=176", "time": 176}, {"message": "note_on channel=0 note=0 velocity=102 time=309", "time": 309}, {"message": "note_off channel=0 note=0 velocity=102 time=171", "time": 171}, {"message": "note_on channel=0 note=0 velocity=102 time=312", "time": 312}, {"message": "note_off channel=0 note=0 velocity=102 time=168", "time": 168}, {"message": "note_on channel=0 note=0 velocity=102 time=312", "time": 312}, {"message": "note_off channel=0 note=0 velocity=102 time=168", "time": 168}, {"message": "note_on channel=0 note=0 velocity=102 time=315", "time": 315}, {"message": "note_off channel=0 note=0 velocity=102 time=165", "time": 165}, {"message": "note_on channel=0 note=0 velocity=102 time=312", "time": 312}, {"message": "note_off channel=0 note=0 velocity=102 time=168", "time": 168}, {"message": "note_on channel=0 note=0 velocity=102 time=311", "time": 311}, {"message": "note_off channel=0 note=0 velocity=102 time=169", "time": 169}, {"message": "note_on channel=0 note=0 velocity=102 time=303", "time": 303}, {"message": "note_off channel=0 note=0 velocity=102 time=177", "time": 177}, {"message": "note_on channel=0 note=0 velocity=102 time=314", "time": 314}, {"message": "note_off channel=0 note=0 velocity=102 time=166", "time": 166}, {"message": "note_on channel=0 note=0 velocity=102 time=306", "time": 306}, {"message": "note_off channel=0 note=0 velocity=102 time=174", "time": 174}, {"message": "note_on channel=0 note=0 velocity=102 time=308", "time": 308}, {"message": "note_off channel=0 note=0 velocity=102 time=172", "time": 172}, {"message": "note_on channel=0 note=0 velocity=102 time=307", "time": 307}, {"message": "note_off channel=0 note=0 velocity=102 time=173", "time": 173}, {"message": "note_on channel=0 note=0 velocity=102 time=308", "time": 308}, {"message": "note_off channel=0 note=0 velocity=102 time=172", "time": 172}, {"message": "note_on channel=0 note=0 velocity=102 time=314", "time": 314}, {"message": "note_off channel=0 note=0 velocity=102 time=166", "time": 166}, {"message": "note_on channel=0 note=0 velocity=102 time=302", "time": 302}, {"message": "note_off channel=0 note=0 velocity=102 time=178", "time": 178}, {"message": "note_on channel=0 note=0 velocity=102 time=316", "time": 316}, {"message": "note_off channel=0 note=0 velocity=102 time=164", "time": 164}, {"message": "note_on channel=0 note=0 velocity=102 time=304", "time": 304}, {"message": "note_off channel=0 note=0 velocity=102 time=176", "time": 176}, {"message": "note_on channel=0 note=0 velocity=102 time=306", "time": 306}, {"message": "note_off channel=0 note=0 velocity=102 time=174", "time": 174}, {"message": "note_on channel=0 note=0 velocity=102 time=319", "time": 319}, {"message": "note_off channel=0 note=0 velocity=102 time=161", "time": 161}, {"message": "note_on channel=0 note=0 velocity=102 time=307", "time": 307}, {"message": "note_off channel=0 note=0 velocity=102 time=173", "time": 173}, {"message": "note_on channel=0 note=0 velocity=102 time=300", "time": 300}, {"message": "note_off channel=0 note=0 velocity=102 time=180", "time": 180}, {"message": "note_on channel=0 note=0 velocity=102 time=309", "time": 309}, {"message": "note_off channel=0 note=0 velocity=102 time=171", "time": 171}, {"message": "note_on channel=0 note=0 velocity=102 time=312", "time": 312}, {"message": "note_off channel=0 note=0 velocity=102 time=167", "time": 167}, {"message": "note_on channel=0 note=0 velocity=102 time=320", "time": 320}, {"message": "note_off channel=0 note=0 velocity=102 time=161", "time": 161}, {"message": "note_on channel=0 note=0 velocity=102 time=316", "time": 316}, {"message": "note_off channel=0 note=0 velocity=102 time=164", "time": 164}, {"message": "note_on channel=0 note=0 velocity=102 time=302", "time": 302}, {"message": "note_off channel=0 note=0 velocity=102 time=178", "time": 178}, {"message": "note_on channel=0 note=0 velocity=102 time=308", "time": 308}, {"message": "note_off channel=0 note=0 velocity=102 time=172", "time": 172}, {"message": "note_on channel=0 note=0 velocity=102 time=301", "time": 301}, {"message": "note_off channel=0 note=0 velocity=102 time=179", "time": 179}, {"message": "note_on channel=0 note=0 velocity=102 time=319", "time": 319}, {"message": "note_off channel=0 note=0 velocity=102 time=161", "time": 161}, {"message": "note_on channel=0 note=0 velocity=102 time=316", "time": 316}, {"message": "note_off channel=0 note=0 velocity=102 time=164", "time": 164}, {"message": "note_on channel=0 note=0 velocity=102 time=309", "time": 309}, {"message": "note_off channel=0 note=0 velocity=102 time=171", "time": 171}, {"message": "note_on channel=0 note=0 velocity=102 time=309", "time": 309}, {"message": "note_off channel=0 note=0 velocity=102 time=171", "time": 171}, {"message": "note_on channel=0 note=0 velocity=102 time=307", "time": 307}, {"message": "note_off channel=0 note=0 velocity=102 time=172", "time": 172}, {"message": "note_on channel=0 note=0 velocity=102 time=320", "time": 320}, {"message": "note_off channel=0 note=0 velocity=102 time=161", "time": 161}, {"message": "note_on channel=0 note=0 velocity=102 time=315", "time": 315}, {"message": "note_off channel=0 note=0 velocity=102 time=165", "time": 165}, {"message": "note_on channel=0 note=0 velocity=102 time=316", "time": 316}, {"message": "note_off channel=0 note=0 velocity=102 time=164", "time": 164}, {"message": "note_on channel=0 note=0 velocity=102 time=313", "time": 313}, {"message": "note_off channel=0 note=0 velocity=102 time=167", "time": 167}, {"message": "note_on channel=0 note=0 velocity=102 time=310", "time": 310}, {"message": "note_off channel=0 note=0 velocity=102 time=170", "time": 170}, {"message": "note_on channel=0 note=0 velocity=102 time=300", "time": 300}, {"message": "note_off channel=0 note=0 velocity=102 time=179", "time": 179}, {"message": "note_on channel=0 note=0 velocity=102 time=316", "time": 316}, {"message": "note_off channel=0 note=0 velocity=102 time=164", "time": 164}, {"message": "note_on channel=0 note=0 velocity=102 time=314", "time": 314}, {"message": "note_off channel=0 note=0 velocity=102 time=167", "time": 167}, {"message": "note_on channel=0 note=0 velocity=102 time=310", "time": 310}, {"message": "note_off channel=0 note=0 velocity=102 time=170", "time": 170}, {"message": "note_on channel=0 note=0 velocity=102 time=310", "time": 310}, {"message": "note_off channel=0 note=0 velocity=102 time=169", "time": 169}, {"message": "note_on channel=0 note=0 velocity=102 time=308", "time": 308}, {"message": "note_off channel=0 note=0 velocity=102 time=173", "time": 173}, {"message": "note_on channel=0 note=0 velocity=102 time=313", "time": 313}, {"message": "note_off channel=0 note=0 velocity=102 time=167", "time": 167}, {"message": "note_on channel=0 note=0 velocity=102 time=316", "time": 316}, {"message": "note_off channel=0 note=0 velocity=102 time=164", "time": 164}, {"message": "note_on channel=0 note=0 velocity=102 time=313", "time": 313}, {"message": "note_off channel=0 note=0 velocity=102 time=167", "time": 167}, {"message": "note_on channel=0 note=0 velocity=102 time=303", "time": 303}, {"message": "note_off channel=0 note=0 velocity=102 time=177", "time": 177}, {"message": "note_on channel=0 note=0 velocity=102 time=316", "time": 316}, {"message": "note_off channel=0 note=0 velocity=102 time=164", "time": 164}, {"message": "note_on channel=0 note=0 velocity=102 time=307", "time": 307}, {"message": "note_off channel=0 note=0 velocity=102 time=173", "time": 173}, {"message": "note_on channel=0 note=0 velocity=102 time=304", "time": 304}, {"message": "note_off channel=0 note=0 velocity=102 time=176", "time": 176}, {"message": "note_on channel=0 note=0 velocity=102 time=305", "time": 305}, {"message": "note_off channel=0 note=0 velocity=102 time=175", "time": 175}, {"message": "note_on channel=0 note=0 velocity=102 time=309", "time": 309}, {"message": "note_off channel=0 note=0 velocity=102 time=171", "time": 171}, {"message": "note_on channel=0 note=0 velocity=102 time=312", "time": 312}, {"message": "note_off channel=0 note=0 velocity=102 time=168", "time": 168}, {"message": "note_on channel=0 note=0 velocity=102 time=317", "time": 317}, {"message": "note_off channel=0 note=0 velocity=102 time=163", "time": 163}, {"message": "note_on channel=0 note=0 velocity=102 time=302", "time": 302}, {"message": "note_off channel=0 note=0 velocity=102 time=178", "time": 178}, {"message": "note_on channel=0 note=0 velocity=102 time=305", "time": 305}, {"message": "note_off channel=0 note=0 velocity=102 time=175", "time": 175}, {"message": "note_on channel=0 note=0 velocity=102 time=305", "time": 305}, {"message": "note_off channel=0 note=0 velocity=102 time=174", "time": 174}, {"message": "note_on channel=0 note=0 velocity=102 time=314", "time": 314}, {"message": "note_off channel=0 note=0 velocity=102 time=167", "time": 167}, {"message": "note_on channel=0 note=0 velocity=102 time=317", "time": 317}, {"message": "note_off channel=0 note=0 velocity=102 time=163", "time": 163}, {"message": "note_on channel=0 note=0 velocity=102 time=302", "time": 302}, {"message": "note_off channel=0 note=0 velocity=102 time=178", "time": 178}, {"message": "note_on channel=0 note=0 velocity=102 time=308", "time": 308}, {"message": "note_off channel=0 note=0 velocity=102 time=172", "time": 172}, {"message": "note_on channel=0 note=0 velocity=102 time=316", "time": 316}, {"message": "note_off channel=0 note=0 velocity=102 time=163", "time": 163}, {"message": "note_on channel=0 note=0 velocity=102 time=319", "time": 319}, {"message": "note_off channel=0 note=0 velocity=102 time=162", "time": 162}, {"message": "note_on channel=0 note=0 velocity=102 time=316", "time": 316}, {"message": "note_off channel=0 note=0 velocity=102 time=163", "time": 163}, {"message": "note_on channel=0 note=0 velocity=102 time=310", "time": 310}, {"message": "note_off channel=0 note=0 velocity=102 time=170", "time": 170}, {"message": "note_on channel=0 note=0 velocity=102 time=305", "time": 305}, {"message": "note_off channel=0 note=0 velocity=102 time=176", "time": 176}, {"message": "note_on channel=0 note=0 velocity=102 time=304", "time": 304}, {"message": "note_off channel=0 note=0 velocity=102 time=176", "time": 176}, {"message": "note_on channel=0 note=0 velocity=102 time=318", "time": 318}, {"message": "note_off channel=0 note=0 velocity=102 time=162", "time": 162}, {"message": "note_on channel=0 note=0 velocity=102 time=301", "time": 301}, {"message": "note_off channel=0 note=0 velocity=102 time=179", "time": 179}, {"message": "note_on channel=0 note=0 velocity=102 time=312", "time": 312}, {"message": "note_off channel=0 note=0 velocity=102 time=168", "time": 168}, {"message": "note_on channel=0 note=0 velocity=102 time=316", "time": 316}, {"message": "note_off channel=0 note=0 velocity=102 time=164", "time": 164}, {"message": "note_on channel=0 note=0 velocity=102 time=312", "time": 312}, {"message": "note_off channel=0 note=0 velocity=102 time=168", "time": 168}, {"message": "note_on channel=0 note=0 velocity=102 time=305", "time": 305}, {"message": "note_off channel=0 note=0 velocity=102 time=175", "time": 175}, {"message": "note_on channel=0 note=0 velocity=102 time=305", "time": 305}, {"message": "note_off channel=0 note=0 velocity=102 time=175", "time": 175}, {"message": "note_on channel=0 note=0 velocity=102 time=313", "time": 313}, {"message": "note_off channel=0 note=0 velocity=102 time=167", "time": 167}, {"message": "note_on channel=0 note=0 velocity=102 time=303", "time": 303}, {"message": "note_off channel=0 note=0 velocity=102 time=177", "time": 177}, {"message": "note_on channel=0 note=0 velocity=102 time=320", "time": 320}, {"message": "note_off channel=0 note=0 velocity=102 time=160", "time": 160}, {"message": "note_on channel=0 note=0 velocity=102 time=309", "time": 309}, {"message": "note_off channel=0 note=0 velocity=102 time=171", "time": 171}, {"message": "note_on channel=0 note=0 velocity=102 time=302", "time": 302}, {"message": "note_off channel=0 note=0 velocity=102 time=178", "time": 178}, {"message": "note_on channel=0 note=0 velocity=102 time=318", "time": 318}, {"message": "note_off channel=0 note=0 velocity=102 time=162", "time": 162}, {"message": "note_on channel=0 note=0 velocity=102 time=309", "time": 309}, {"message": "note_off channel=0 note=0 velocity=102 time=171", "time": 171}, {"message": "note_on channel=0 note=0 velocity=102 time=310", "time": 310}, {"message": "note_off channel=0 note=0 velocity=102 time=170", "time": 170}, {"message": "note_on channel=0 note=0 velocity=102 time=314", "time": 314}, {"message": "note_off channel=0 note=0 velocity=102 time=166", "time": 166}, {"message": "note_on channel=0 note=0 velocity=102 time=311", "time": 311}, {"message": "note_off channel=0 note=0 velocity=102 time=169", "time": 169}, {"message": "note_on channel=0 note=0 velocity=102 time=320", "time": 320}, {"message": "note_off channel=0 note=0 velocity=102 time=160", "time": 160}, {"message": "note_on channel=0 note=0 velocity=102 time=300", "time": 300}, {"message": "note_off channel=0 note=0 velocity=102 time=180", "time": 180}, {"message": "note_on channel=0 note=0 velocity=102 time=315", "time": 315}, {"message": "note_off channel=0 note=0 velocity=102 time=165", "time": 165}, {"message": "note_on channel=0 note=0 velocity=102 time=313", "time": 313}, {"message": "note_off channel=0 note=0 velocity=102 time=167", "time": 167}, {"message": "note_on channel=0 note=0 velocity=102 time=320", "time": 320}, {"message": "note_off channel=0 note=0 velocity=102 time=160", "time": 160}, {"message": "note_on channel=0 note=0 velocity=102 time=318", "time": 318}, {"message": "note_off channel=0 note=0 velocity=102 time=162", "time": 162}, {"message": "note_on channel=0 note=0 velocity=102 time=313", "time": 313}, {"message": "note_off channel=0 note=0 velocity=102 time=167", "time": 167}, {"message": "note_on channel=0 note=0 velocity=102 time=313", "time": 313}, {"message": "note_off channel=0 note=0 velocity=102 time=167", "time": 167}, {"message": "note_on channel=0 note=0 velocity=102 time=313", "time": 313}, {"message": "note_off channel=0 note=0 velocity=102 time=166", "time": 166}, {"message": "note_on channel=0 note=0 velocity=102 time=302", "time": 302}, {"message": "note_off channel=0 note=0 velocity=102 time=179", "time": 179}, {"message": "note_on channel=0 note=0 velocity=102 time=318", "time": 318}, {"message": "note_off channel=0 note=0 velocity=102 time=162", "time": 162}, {"message": "note_on channel=0 note=0 velocity=102 time=303", "time": 303}, {"message": "note_off channel=0 note=0 velocity=102 time=177", "time": 177}, {"message": "note_on channel=0 note=0 velocity=102 time=317", "time": 317}, {"message": "note_off channel=0 note=0 velocity=102 time=163", "time": 163}, {"message": "note_on channel=0 note=0 velocity=102 time=301", "time": 301}, {"message": "note_off channel=0 note=0 velocity=102 time=179", "time": 179}, {"message": "note_on channel=0 note=0 velocity=102 time=306", "time": 306}, {"message": "note_off channel=0 note=0 velocity=102 time=174", "time": 174}, {"message": "note_on channel=0 note=0 velocity=102 time=315", "time": 315}, {"message": "note_off channel=0 note=0 velocity=102 time=165", "time": 165}, {"message": "note_on channel=0 note=0 velocity=102 time=312", "time": 312}, {"message": "note_off channel=0 note=0 velocity=102 time=168", "time": 168}, {"message": "note_on channel=0 note=0 velocity=102 time=315", "time": 315}, {"message": "note_off channel=0 note=0 velocity=102 time=165", "time": 165}, {"message": "note_on channel=0 note=0 velocity=102 time=313", "time": 313}, {"message": "note_off channel=0 note=0 velocity=102 time=166", "time": 166}, {"message": "note_on channel=0 note=0 velocity=102 time=310", "time": 310}, {"message": "note_off channel=0 note=0 velocity=102 time=171", "time": 171}, {"message": "note_on channel=0 note=0 velocity=102 time=316", "time": 316}, {"message": "note_off channel=0 note=0 velocity=102 time=164", "time": 164}, {"message": "note_on channel=0 note=0 velocity=102 time=310", "time": 310}, {"message": "note_off channel=0 note=0 velocity=102 time=169", "time": 169}, {"message": "note_on channel=0 note=0 velocity=102 time=318", "time": 318}, {"message": "note_off channel=0 note=0 velocity=102 time=162", "time": 162}, {"message": "note_on channel=0 note=0 velocity=102 time=308", "time": 308}, {"message": "note_off channel=0 note=0 velocity=102 time=173", "time": 173}, {"message": "note_on channel=0 note=0 velocity=102 time=306", "time": 306}, {"message": "note_off channel=0 note=0 velocity=102 time=174", "time": 174}, {"message": "note_on channel=0 note=0 velocity=102 time=302", "time": 302}, {"message": "note_off channel=0 note=0 velocity=102 time=178", "time": 178}, {"message": "note_on channel=0 note=0 velocity=102 time=304", "time": 304}, {"message": "note_off channel=0 note=0 velocity=102 time=176", "time": 176}, {"message": "note_on channel=0 note=0 velocity=102 time=313", "time": 313}, {"message": "note_off channel=0 note=0 velocity=102 time=167", "time": 167}, {"message": "note_on channel=0 note=0 velocity=102 time=316", "time": 316}, {"message": "note_off channel=0 note=0 velocity=102 time=164", "time": 164}, {"message": "note_on channel=0 note=0 velocity=102 time=306", "time": 306}, {"message": "note_off channel=0 note=0 velocity=102 time=174", "time": 174}, {"message": "note_on channel=0 note=0 velocity=102 time=311", "time": 311}, {"message": "note_off channel=0 note=0 velocity=102 time=169", "time": 169}, {"message": "note_on channel=0 note=0 velocity=102 time=314", "time": 314}, {"message": "note_off channel=0 note=0 velocity=102 time=166", "time": 166}, {"message": "note_on channel=0 note=0 velocity=102 time=320", "time": 320}, {"message": "note_off channel=0 note=0 velocity=102 time=160", "time": 160}, {"message": "note_on channel=0 note=0 velocity=102 time=311", "time": 311}, {"message": "note_off channel=0 note=0 velocity=102 time=169", "time": 169}, {"message": "note_on channel=0 note=0 velocity=102 time=305", "time": 305}, {"message": "note_off channel=0 note=0 velocity=102 time=175", "time": 175}, {"message": "note_on channel=0 note=0 velocity=102 time=314", "time": 314}, {"message": "note_off channel=0 note=0 velocity=102 time=166", "time": 166}, {"message": "note_on channel=0 note=0 velocity=102 time=318", "time": 318}, {"message": "note_off channel=0 note=0 velocity=102 time=162", "time": 162}, {"message": "note_on channel=0 note=0 velocity=102 time=305", "time": 305}, {"message": "note_off channel=0 note=0 velocity=102 time=175", "time": 175}, {"message": "note_on channel=0 note=0 velocity=102 time=309", "time": 309}, {"message": "note_off channel=0 note=0 velocity=102 time=170", "time": 170}, {"message": "note_on channel=0 note=0 velocity=102 time=309", "time": 309}, {"message": "note_off channel=0 note=0 velocity=102 time=172", "time": 172}, {"message": "note_on channel=0 note=0 velocity=102 time=312", "time": 312}, {"message": "note_off channel=0 note=0 velocity=102 time=168", "time": 168}, {"message": "note_on channel=0 note=0 velocity=102 time=310", "time": 310}, {"message": "note_off channel=0 note=0 velocity=102 time=170", "time": 170}, {"message": "note_on channel=0 note=0 velocity=102 time=307", "time": 307}, {"message": "note_off channel=0 note=0 velocity=102 time=173", "time": 173}, {"message": "note_on channel=0 note=0 velocity=102 time=306", "time": 306}, {"message": "note_off channel=0 note=0 velocity=102 time=173", "time": 173}, {"message": "note_on channel=0 note=0 velocity=102 time=303", "time": 303}, {"message": "note_off channel=0 note=0 velocity=102 time=178", "time": 178}, {"message": "note_on channel=0 note=0 velocity=102 time=304", "time": 304}, {"message": "note_off channel=0 note=0 velocity=102 time=176", "time": 176}, {"message": "note_on channel=0 note=0 velocity=102 time=307", "time": 307}, {"message": "note_off channel=0 note=0 velocity=102 time=173", "time": 173}, {"message": "note_on channel=0 note=0 velocity=102 time=300", "time": 300}, {"message": "note_off channel=0 note=0 velocity=102 time=180", "time": 180}, {"message": "note_on channel=0 note=0 velocity=102 time=319", "time": 319}, {"message": "note_off channel=0 note=0 velocity=102 time=160", "time": 160}, {"message": "note_on channel=0 note=0 velocity=102 time=318", "time": 318}, {"message": "note_off channel=0 note=0 velocity=102 time=163", "time": 163}, {"message": "note_on channel=0 note=0 velocity=102 time=314", "time": 314}, {"message": "note_off channel=0 note=0 velocity=102 time=165", "time": 165}, {"message": "note_on channel=0 note=0 velocity=102 time=315", "time": 315}, {"message": "note_off channel=0 note=0 velocity=102 time=166", "time": 166}, {"message": "note_on channel=0 note=0 velocity=102 time=309", "time": 309}, {"message": "note_off channel=0 note=0 velocity=102 time=171", "time": 171}, {"message": "note_on channel=0 note=0 velocity=102 time=300", "time": 300}, {"message": "note_off channel=0 note=0 velocity=102 time=180", "time": 180}, {"message": "note_on channel=0 note=0 velocity=102 time=317", "time": 317}, {"message": "note_off channel=0 note=0 velocity=102 time=163", "time": 163}, {"message": "note_on channel=0 note=0 velocity=102 time=317", "time": 317}, {"message": "note_off channel=0 note=0 velocity=102 time=163", "time": 163}, {"message": "note_on channel=0 note=0 velocity=102 time=303", "time": 303}, {"message": "note_off channel=0 note=0 velocity=102 time=176", "time": 176}, {"message": "note_on channel=0 note=0 velocity=102 time=305", "time": 305}, {"message": "note_off channel=0 note=0 velocity=102 time=175", "time": 175}, {"message": "note_on channel=0 note=0 velocity=102 time=307", "time": 307}, {"message": "note_off channel=0 note=0 velocity=102 time=174", "time": 174}, {"message": "note_on channel=0 note=0 velocity=102 time=310", "time": 310}, {"message": "note_off channel=0 note=0 velocity=102 time=170", "time": 170}, {"message": "note_on channel=0 note=0 velocity=102 time=312", "time": 312}, {"message": "note_off channel=0 note=0 velocity=102 time=167", "time": 167}, {"message": "note_on channel=0 note=0 velocity=102 time=307", "time": 307}, {"message": "note_off channel=0 note=0 velocity=102 time=174", "time": 174}, {"message": "note_on channel=0 note=0 velocity=102 time=303", "time": 303}, {"message": "note_off channel=0 note=0 velocity=102 time=176", "time": 176}, {"message": "note_on channel=0 note=0 velocity=102 time=310", "time": 310}, {"message": "note_off channel=0 note=0 velocity=102 time=171", "time": 171}, {"message": "note_on channel=0 note=0 velocity=102 time=308", "time": 308}, {"message": "note_off channel=0 note=0 velocity=102 time=172", "time": 172}, {"message": "note_on channel=0 note=0 velocity=102 time=311", "time": 311}, {"message": "note_off channel=0 note=0 velocity=102 time=169", "time": 169}, {"message": "note_on channel=0 note=0 velocity=102 time=307", "time": 307}, {"message": "note_off channel=0 note=0 velocity=102 time=173", "time": 173}, {"message": "note_on channel=0 note=0 velocity=102 time=305", "time": 305}, {"message": "note_off channel=0 note=0 velocity=102 time=175", "time": 175}, {"message": "note_on channel=0 note=0 velocity=102 time=307", "time": 307}, {"message": "note_off channel=0 note=0 velocity=102 time=173", "time": 173}, {"message": "note_on channel=0 note=0 velocity=102 time=318", "time": 318}, {"message": "note_off channel=0 note=0 velocity=102 time=162", "time": 162}, {"message": "note_on channel=0 note=0 velocity=102 time=318", "time": 318}, {"message": "note_off channel=0 note=0 velocity=102 time=162", "time": 162}, {"message": "note_on channel=0 note=0 velocity=102 time=305", "time": 305}, {"message": "note_off channel=0 note=0 velocity=102 time=175", "time": 175}, {"message": "note_on channel=0 note=0 velocity=102 time=311", "time": 311}, {"message": "note_off channel=0 note=0 velocity=102 time=168", "time": 168}, {"message": "note_on channel=0 note=0 velocity=102 time=306", "time": 306}, {"message": "note_off channel=0 note=0 velocity=102 time=175", "time": 175}, {"message": "note_on channel=0 note=0 velocity=102 time=319", "time": 319}, {"message": "note_off channel=0 note=0 velocity=102 time=161", "time": 161}, {"message": "note_on channel=0 note=0 velocity=102 time=302", "time": 302}, {"message": "note_off channel=0 note=0 velocity=102 time=178", "time": 178}, {"message": "note_on channel=0 note=0 velocity=102 time=308", "time": 308}, {"message": "note_off channel=0 note=0 velocity=102 time=172", "time": 172}, {"message": "note_on channel=0 note=0 velocity=102 time=309", "time": 309}, {"message": "note_off channel=0 note=0 velocity=102 time=171", "time": 171}, {"message": "note_on channel=0 note=0 velocity=102 time=305", "time": 305}, {"message": "note_off channel=0 note=0 velocity=102 time=175", "time": 175}, {"message": "note_on channel=0 note=0 velocity=102 time=312", "time": 312}, {"message": "note_off channel=0 note=0 velocity=102 time=168", "time": 168}, {"message": "note_on channel=0 note=0 velocity=102 time=310", "time": 310}, {"message": "note_off channel=0 note=0 velocity=102 time=170", "time": 170}, {"message": "note_on channel=0 note=0 velocity=102 time=310", "time": 310}, {"message": "note_off channel=0 note=0 velocity=102 time=169", "time": 169}, {"message": "note_on channel=0 note=0 velocity=102 time=305", "time": 305}, {"message": "note_off channel=0 note=0 velocity=102 time=176", "time": 176}, {"message": "note_on channel=0 note=0 velocity=102 time=318", "time": 318}, {"message": "note_off channel=0 note=0 velocity=102 time=162", "time": 162}, {"message": "note_on channel=0 note=0 velocity=102 time=311", "time": 311}, {"message": "note_off channel=0 note=0 velocity=102 time=169", "time": 169}, {"message": "note_on channel=0 note=0 velocity=102 time=314", "time": 314}, {"message": "note_off channel=0 note=0 velocity=102 time=166", "time": 166}, {"message": "note_on channel=0 note=0 velocity=102 time=317", "time": 317}, {"message": "note_off channel=0 note=0 velocity=102 time=162", "time": 162}, {"message": "note_on channel=0 note=0 velocity=102 time=307", "time": 307}, {"message": "note_off channel=0 note=0 velocity=102 time=173", "time": 173}, {"message": "note_on channel=0 note=0 velocity=102 time=309", "time": 309}, {"message": "note_off channel=0 note=0 velocity=102 time=172", "time": 172}, {"message": "note_on channel=0 note=0 velocity=102 time=314", "time": 314}, {"message": "note_off channel=0 note=0 velocity=102 time=166", "time": 166}, {"message": "note_on channel=0 note=0 velocity=102 time=312", "time": 312}, {"message": "note_off channel=0 note=0 velocity=102 time=168", "time": 168}, {"message": "note_on channel=0 note=0 velocity=102 time=318", "time": 318}, {"message": "note_off channel=0 note=0 velocity=102 time=162", "time": 162}, {"message": "note_on channel=0 note=0 velocity=102 time=317", "time": 317}, {"message": "note_off channel=0 note=0 velocity=102 time=163", "time": 163}, {"message": "note_on channel=0 note=0 velocity=102 time=316", "time": 316}, {"message": "note_off channel=0 note=0 velocity=102 time=164", "time": 164}, {"message": "note_on channel=0 note=0 velocity=102 time=314", "time": 314}, {"message": "note_off channel=0 note=0 velocity=102 time=166", "time": 166}, {"message": "note_on channel=0 note=0 velocity=102 time=303", "time": 303}, {"message": "note_off channel=0 note=0 velocity=102 time=177", "time": 177}, {"message": "note_on channel=0 note=0 velocity=102 time=303", "time": 303}, {"message": "note_off channel=0 note=0 velocity=102 time=176", "time": 176}, {"message": "note_on channel=0 note=0 velocity=102 time=312", "time": 312}, {"message": "note_off channel=0 note=0 velocity=102 time=169", "time": 169}, {"message": "note_on channel=0 note=0 velocity=102 time=305", "time": 305}, {"message": "note_off channel=0 note=0 velocity=102 time=175", "time": 175}, {"message": "note_on channel=0 note=0 velocity=102 time=305", "time": 305}, {"message": "note_off channel=0 note=0 velocity=102 time=175", "time": 175}, {"message": "note_on channel=0 note=0 velocity=102 time=302", "time": 302}, {"message": "note_off channel=0 note=0 velocity=102 time=177", "time": 177}, {"message": "note_on channel=0 note=0 velocity=102 time=306", "time": 306}, {"message": "note_off channel=0 note=0 velocity=102 time=175", "time": 175}, {"message": "note_on channel=0 note=0 velocity=102 time=302", "time": 302}, {"message": "note_off channel=0 note=0 velocity=102 time=178", "time": 178}, {"message": "note_on channel=0 note=0 velocity=102 time=313", "time": 313}, {"message": "note_off channel=0 note=0 velocity=102 time=167", "time": 167}, {"message": "note_on channel=0 note=0 velocity=102 time=301", "time": 301}, {"message": "note_off channel=0 note=0 velocity=102 time=178", "time": 178}, {"message": "note_on channel=0 note=0 velocity=102 time=308", "time": 308}, {"message": "note_off channel=0 note=0 velocity=102 time=173", "time": 173}, {"message": "note_on channel=0 note=0 velocity=102 time=301", "time": 301}, {"message": "note_off channel=0 note=0 velocity=102 time=179", "time": 179}, {"message": "note_on channel=0 note=0 velocity=102 time=312", "time": 312}, {"message": "note_off channel=0 note=0 velocity=102 time=167", "time": 167}, {"message": "note_on channel=0 note=0 velocity=102 time=312", "time": 312}, {"message": "note_off channel=0 note=0 velocity=102 time=169", "time": 169}, {"message": "note_on channel=0 note=0 velocity=102 time=308", "time": 308}, {"message": "note_off channel=0 note=0 velocity=102 time=172", "time": 172}, {"message": "note_on channel=0 note=0 velocity=102 time=315", "time": 315}, {"message": "note_off channel=0 note=0 velocity=102 time=165", "time": 165}, {"message": "note_on channel=0 note=0 velocity=102 time=304", "time": 304}, {"message": "note_off channel=0 note=0 velocity=102 time=176", "time": 176}, {"message": "note_on channel=0 note=0 velocity=102 time=312", "time": 312}, {"message": "note_off channel=0 note=0 velocity=102 time=168", "time": 168}, {"message": "note_on channel=0 note=0 velocity=102 time=312", "time": 312}, {"message": "note_off channel=0 note=0 velocity=102 time=168", "time": 168}, {"message": "note_on channel=0 note=0 velocity=102 time=307", "time": 307}, {"message": "note_off channel=0 note=0 velocity=102 time=173", "time": 173}, {"message": "note_on channel=0 note=0 velocity=102 time=301", "time": 301}, {"message": "note_off channel=0 note=0 velocity=102 time=179", "time": 179}, {"message": "note_on channel=0 note=0 velocity=102 time=319", "time": 319}, {"message": "note_off channel=0 note=0 velocity=102 time=161", "time": 161}, {"message": "note_on channel=0 note=0 velocity=102 time=315", "time": 315}, {"message": "note_off channel=0 note=0 velocity=102 time=165", "time": 165}, {"message": "note_on channel=0 note=0 velocity=102 time=304", "time": 304}, {"message": "note_off channel=0 note=0 velocity=102 time=176", "time": 176}, {"message": "note_on channel=0 note=0 velocity=102 time=308", "time": 308}, {"message": "note_off channel=0 note=0 velocity=102 time=172", "time": 172}, {"message": "note_on channel=0 note=0 velocity=102 time=318", "time": 318}, {"message": "note_off channel=0 note=0 velocity=102 time=162", "time": 162}, {"message": "note_on channel=0 note=0 velocity=102 time=309", "time": 309}, {"message": "note_off channel=0 note=0 velocity=102 time=171", "time": 171}, {"message": "note_on channel=0 note=0 velocity=102 time=318", "time": 318}, {"message": "note_off channel=0 note=0 velocity=102 time=162", "time": 162}, {"message": "note_on channel=0 note=0 velocity=102 time=317", "time": 317}, {"message": "note_off channel=0 note=0 velocity=102 time=163", "time": 163}, {"message": "note_on channel=0 note=0 velocity=102 time=307", "time": 307}, {"message": "note_off channel=0 note=0 velocity=102 time=173", "time": 173}, {"message": "note_on channel=0 note=0 velocity=102 time=310", "time": 310}, {"message": "note_off channel=0 note=0 velocity=102 time=170", "time": 170}, {"message": "note_on channel=0 note=0 velocity=102 time=314", "time": 314}, {"message": "note_off channel=0 note=0 velocity=102 time=166", "time": 166}, {"message": "note_on channel=0 note=0 velocity=102 time=304", "time": 304}, {"message": "note_off channel=0 note=0 velocity=102 time=176", "time": 176}, {"message": "note_on channel=0 note=0 velocity=102 time=314", "time": 314}, {"message": "note_off channel=0 note=0 velocity=102 time=166", "time": 166}, {"message": "note_on channel=0 note=0 velocity=102 time=320", "time": 320}, {"message": "note_off channel=0 note=0 velocity=102 time=160", "time": 160}, {"message": "note_on channel=0 note=0 velocity=102 time=319", "time": 319}, {"message": "note_off channel=0 note=0 velocity=102 time=161", "time": 161}, {"message": "note_on channel=0 note=0 velocity=102 time=311", "time": 311}, {"message": "note_off channel=0 note=0 velocity=102 time=169", "time": 169}, {"message": "note_on channel=0 note=0 velocity=102 time=318", "time": 318}, {"message": "note_off channel=0 note=0 velocity=102 time=162", "time": 162}, {"message": "note_on channel=0 note=0 velocity=102 time=317", "time": 317}, {"message": "note_off channel=0 note=0 velocity=102 time=163", "time": 163}, {"message": "note_on channel=0 note=0 velocity=102 time=311", "time": 311}, {"message": "note_off channel=0 note=0 velocity=102 time=169", "time": 169}, {"message": "note_on channel=0 note=0 velocity=102 time=308", "time": 308}, {"message": "note_off channel=0 note=0 velocity=102 time=172", "time": 172}, {"message": "note_on channel=0 note=0 velocity=102 time=316", "time": 316}, {"message": "note_off channel=0 note=0 velocity=102 time=164", "time": 164}, {"message": "note_on channel=0 note=0 velocity=102 time=310", "time": 310}, {"message": "note_off channel=0 note=0 velocity=102 time=169", "time": 169}, {"message": "note_on channel=0 note=0 velocity=102 time=315", "time": 315}, {"message": "note_off channel=0 note=0 velocity=102 time=166", "time": 166}, {"message": "note_on channel=0 note=0 velocity=102 time=303", "time": 303}, {"message": "note_off channel=0 note=0 velocity=102 time=177", "time": 177}, {"message": "note_on channel=0 note=0 velocity=102 time=302", "time": 302}, {"message": "note_off channel=0 note=0 velocity=102 time=178", "time": 178}, {"message": "note_on channel=0 note=0 velocity=102 time=313", "time": 313}, {"message": "note_off channel=0 note=0 velocity=102 time=167", "time": 167}, {"message": "note_on channel=0 note=0 velocity=102 time=318", "time": 318}, {"message": "note_off channel=0 note=0 velocity=102 time=162", "time": 162}, {"message": "note_on channel=0 note=0 velocity=102 time=319", "time": 319}, {"message": "note_off channel=0 note=0 velocity=102 time=161", "time": 161}, {"message": "note_on channel=0 note=0 velocity=102 time=302", "time": 302}, {"message": "note_off channel=0 note=0 velocity=102 time=177", "time": 177}, {"message": "note_on channel=0 note=0 velocity=102 time=313", "time": 313}, {"message": "note_off channel=0 note=0 velocity=102 time=168", "time": 168}, {"message": "note_on channel=0 note=0 velocity=102 time=309", "time": 309}, {"message": "note_off channel=0 note=0 velocity=102 time=171", "time": 171}, {"message": "note_on channel=0 note=0 velocity=102 time=312", "time": 312}, {"message": "note_off channel=0 note=0 velocity=102 time=167", "time": 167}, {"message": "note_on channel=0 note=0 velocity=102 time=313", "time": 313}, {"message": "note_off channel=0 note=0 velocity=102 time=168", "time": 168}, {"message": "note_on channel=0 note=0 velocity=102 time=318", "time": 318}, {"message": "note_off channel=0 note=0 velocity=102 time=162", "time": 162}, {"message": "note_on channel=0 note=0 velocity=102 time=310", "time": 310}, {"message": "note_off channel=0 note=0 velocity=102 time=170", "time": 170}, {"message": "note_on channel=0 note=0 velocity=102 time=318", "time": 318}, {"message": "note_off channel=0 note=0 velocity=102 time=162", "time": 162}, {"message": "note_on channel=0 note=0 velocity=102 time=303", "time": 303}, {"message": "note_off channel=0 note=0 velocity=102 time=177", "time": 177}, {"message": "MetaMessage('end_of_track', time=0)", "time": 0}]}, {"track": 4, "contents": [{"message": "MetaMessage('track_name', name='OPHat', time=0)", "time": 0}, {"message": "note_on channel=0 note=0 velocity=102 time=92620", "time": 92620}, {"message": "note_off channel=0 note=0 velocity=102 time=339", "time": 339}, {"message": "note_on channel=0 note=0 velocity=102 time=631", "time": 631}, {"message": "note_off channel=0 note=0 velocity=102 time=328", "time": 328}, {"message": "note_on channel=0 note=0 velocity=102 time=631", "time": 631}, {"message": "note_off channel=0 note=0 velocity=102 time=329", "time": 329}, {"message": "note_on channel=0 note=0 velocity=102 time=637", "time": 637}, {"message": "note_off channel=0 note=0 velocity=102 time=324", "time": 324}, {"message": "note_on channel=0 note=0 velocity=102 time=627", "time": 627}, {"message": "note_off channel=0 note=0 velocity=102 time=332", "time": 332}, {"message": "note_on channel=0 note=0 velocity=102 time=641", "time": 641}, {"message": "note_off channel=0 note=0 velocity=102 time=319", "time": 319}, {"message": "note_on channel=0 note=0 velocity=102 time=629", "time": 629}, {"message": "note_off channel=0 note=0 velocity=102 time=332", "time": 332}, {"message": "note_on channel=0 note=0 velocity=102 time=624", "time": 624}, {"message": "note_off channel=0 note=0 velocity=102 time=335", "time": 335}, {"message": "note_on channel=0 note=0 velocity=102 time=625", "time": 625}, {"message": "note_off channel=0 note=0 velocity=102 time=336", "time": 336}, {"message": "note_on channel=0 note=0 velocity=102 time=640", "time": 640}, {"message": "note_off channel=0 note=0 velocity=102 time=320", "time": 320}, {"message": "note_on channel=0 note=0 velocity=102 time=635", "time": 635}, {"message": "note_off channel=0 note=0 velocity=102 time=325", "time": 325}, {"message": "note_on channel=0 note=0 velocity=102 time=621", "time": 621}, {"message": "note_off channel=0 note=0 velocity=102 time=339", "time": 339}, {"message": "note_on channel=0 note=0 velocity=102 time=638", "time": 638}, {"message": "note_off channel=0 note=0 velocity=102 time=321", "time": 321}, {"message": "note_on channel=0 note=0 velocity=102 time=630", "time": 630}, {"message": "note_off channel=0 note=0 velocity=102 time=331", "time": 331}, {"message": "note_on channel=0 note=0 velocity=102 time=630", "time": 630}, {"message": "note_off channel=0 note=0 velocity=102 time=329", "time": 329}, {"message": "note_on channel=0 note=0 velocity=102 time=628", "time": 628}, {"message": "note_off channel=0 note=0 velocity=102 time=333", "time": 333}, {"message": "note_on channel=0 note=0 velocity=102 time=632", "time": 632}, {"message": "note_off channel=0 note=0 velocity=102 time=328", "time": 328}, {"message": "note_on channel=0 note=0 velocity=102 time=635", "time": 635}, {"message": "note_off channel=0 note=0 velocity=102 time=325", "time": 325}, {"message": "note_on channel=0 note=0 velocity=102 time=633", "time": 633}, {"message": "note_off channel=0 note=0 velocity=102 time=326", "time": 326}, {"message": "note_on channel=0 note=0 velocity=102 time=641", "time": 641}, {"message": "note_off channel=0 note=0 velocity=102 time=319", "time": 319}, {"message": "note_on channel=0 note=0 velocity=102 time=627", "time": 627}, {"message": "note_off channel=0 note=0 velocity=102 time=334", "time": 334}, {"message": "note_on channel=0 note=0 velocity=102 time=625", "time": 625}, {"message": "note_off channel=0 note=0 velocity=102 time=335", "time": 335}, {"message": "note_on channel=0 note=0 velocity=102 time=637", "time": 637}, {"message": "note_off channel=0 note=0 velocity=102 time=323", "time": 323}, {"message": "note_on channel=0 note=0 velocity=102 time=629", "time": 629}, {"message": "note_off channel=0 note=0 velocity=102 time=330", "time": 330}, {"message": "note_on channel=0 note=0 velocity=102 time=627", "time": 627}, {"message": "note_off channel=0 note=0 velocity=102 time=334", "time": 334}, {"message": "note_on channel=0 note=0 velocity=102 time=627", "time": 627}, {"message": "note_off channel=0 note=0 velocity=102 time=333", "time": 333}, {"message": "note_on channel=0 note=0 velocity=102 time=637", "time": 637}, {"message": "note_off channel=0 note=0 velocity=102 time=322", "time": 322}, {"message": "note_on channel=0 note=0 velocity=102 time=623", "time": 623}, {"message": "note_off channel=0 note=0 velocity=102 time=337", "time": 337}, {"message": "note_on channel=0 note=0 velocity=102 time=627", "time": 627}, {"message": "note_off channel=0 note=0 velocity=102 time=333", "time": 333}, {"message": "note_on channel=0 note=0 velocity=102 time=634", "time": 634}, {"message": "note_off channel=0 note=0 velocity=102 time=327", "time": 327}, {"message": "note_on channel=0 note=0 velocity=102 time=626", "time": 626}, {"message": "note_off channel=0 note=0 velocity=102 time=334", "time": 334}, {"message": "note_on channel=0 note=0 velocity=102 time=637", "time": 637}, {"message": "note_off channel=0 note=0 velocity=102 time=323", "time": 323}, {"message": "note_on channel=0 note=0 velocity=102 time=640", "time": 640}, {"message": "note_off channel=0 note=0 velocity=102 time=319", "time": 319}, {"message": "note_on channel=0 note=0 velocity=102 time=638", "time": 638}, {"message": "note_off channel=0 note=0 velocity=102 time=323", "time": 323}, {"message": "note_on channel=0 note=0 velocity=102 time=638", "time": 638}, {"message": "note_off channel=0 note=0 velocity=102 time=322", "time": 322}, {"message": "note_on channel=0 note=0 velocity=102 time=640", "time": 640}, {"message": "note_off channel=0 note=0 velocity=102 time=320", "time": 320}, {"message": "note_on channel=0 note=0 velocity=102 time=639", "time": 639}, {"message": "note_off channel=0 note=0 velocity=102 time=321", "time": 321}, {"message": "note_on channel=0 note=0 velocity=102 time=636", "time": 636}, {"message": "note_off channel=0 note=0 velocity=102 time=324", "time": 324}, {"message": "note_on channel=0 note=0 velocity=102 time=639", "time": 639}, {"message": "note_off channel=0 note=0 velocity=102 time=320", "time": 320}, {"message": "note_on channel=0 note=0 velocity=102 time=633", "time": 633}, {"message": "note_off channel=0 note=0 velocity=102 time=327", "time": 327}, {"message": "note_on channel=0 note=0 velocity=102 time=641", "time": 641}, {"message": "note_off channel=0 note=0 velocity=102 time=319", "time": 319}, {"message": "note_on channel=0 note=0 velocity=102 time=625", "time": 625}, {"message": "note_off channel=0 note=0 velocity=102 time=335", "time": 335}, {"message": "note_on channel=0 note=0 velocity=102 time=638", "time": 638}, {"message": "note_off channel=0 note=0 velocity=102 time=323", "time": 323}, {"message": "note_on channel=0 note=0 velocity=102 time=630", "time": 630}, {"message": "note_off channel=0 note=0 velocity=102 time=329", "time": 329}, {"message": "note_on channel=0 note=0 velocity=102 time=627", "time": 627}, {"message": "note_off channel=0 note=0 velocity=102 time=333", "time": 333}, {"message": "note_on channel=0 note=0 velocity=102 time=635", "time": 635}, {"message": "note_off channel=0 note=0 velocity=102 time=325", "time": 325}, {"message": "note_on channel=0 note=0 velocity=102 time=631", "time": 631}, {"message": "note_off channel=0 note=0 velocity=102 time=329", "time": 329}, {"message": "note_on channel=0 note=0 velocity=102 time=633", "time": 633}, {"message": "note_off channel=0 note=0 velocity=102 time=328", "time": 328}, {"message": "note_on channel=0 note=0 velocity=102 time=636", "time": 636}, {"message": "note_off channel=0 note=0 velocity=102 time=323", "time": 323}, {"message": "note_on channel=0 note=0 velocity=102 time=623", "time": 623}, {"message": "note_off channel=0 note=0 velocity=102 time=338", "time": 338}, {"message": "note_on channel=0 note=0 velocity=102 time=633", "time": 633}, {"message": "note_off channel=0 note=0 velocity=102 time=327", "time": 327}, {"message": "note_on channel=0 note=0 velocity=102 time=629", "time": 629}, {"message": "note_off channel=0 note=0 velocity=102 time=330", "time": 330}, {"message": "note_on channel=0 note=0 velocity=102 time=630", "time": 630}, {"message": "note_off channel=0 note=0 velocity=102 time=330", "time": 330}, {"message": "note_on channel=0 note=0 velocity=102 time=628", "time": 628}, {"message": "note_off channel=0 note=0 velocity=102 time=333", "time": 333}, {"message": "note_on channel=0 note=0 velocity=102 time=637", "time": 637}, {"message": "note_off channel=0 note=0 velocity=102 time=323", "time": 323}, {"message": "note_on channel=0 note=0 velocity=102 time=636", "time": 636}, {"message": "note_off channel=0 note=0 velocity=102 time=324", "time": 324}, {"message": "note_on channel=0 note=0 velocity=102 time=638", "time": 638}, {"message": "note_off channel=0 note=0 velocity=102 time=322", "time": 322}, {"message": "note_on channel=0 note=0 velocity=102 time=632", "time": 632}, {"message": "note_off channel=0 note=0 velocity=102 time=327", "time": 327}, {"message": "note_on channel=0 note=0 velocity=102 time=638", "time": 638}, {"message": "note_off channel=0 note=0 velocity=102 time=323", "time": 323}, {"message": "note_on channel=0 note=0 velocity=102 time=629", "time": 629}, {"message": "note_off channel=0 note=0 velocity=102 time=330", "time": 330}, {"message": "note_on channel=0 note=0 velocity=102 time=625", "time": 625}, {"message": "note_off channel=0 note=0 velocity=102 time=336", "time": 336}, {"message": "note_on channel=0 note=0 velocity=102 time=632", "time": 632}, {"message": "note_off channel=0 note=0 velocity=102 time=328", "time": 328}, {"message": "note_on channel=0 note=0 velocity=102 time=623", "time": 623}, {"message": "note_off channel=0 note=0 velocity=102 time=337", "time": 337}, {"message": "note_on channel=0 note=0 velocity=102 time=627", "time": 627}, {"message": "note_off channel=0 note=0 velocity=102 time=333", "time": 333}, {"message": "note_on channel=0 note=0 velocity=102 time=31343", "time": 31343}, {"message": "note_off channel=0 note=0 velocity=102 time=337", "time": 337}, {"message": "note_on channel=0 note=0 velocity=102 time=621", "time": 621}, {"message": "note_off channel=0 note=0 velocity=102 time=339", "time": 339}, {"message": "note_on channel=0 note=0 velocity=102 time=639", "time": 639}, {"message": "note_off channel=0 note=0 velocity=102 time=321", "time": 321}, {"message": "note_on channel=0 note=0 velocity=102 time=625", "time": 625}, {"message": "note_off channel=0 note=0 velocity=102 time=335", "time": 335}, {"message": "note_on channel=0 note=0 velocity=102 time=626", "time": 626}, {"message": "note_off channel=0 note=0 velocity=102 time=334", "time": 334}, {"message": "note_on channel=0 note=0 velocity=102 time=631", "time": 631}, {"message": "note_off channel=0 note=0 velocity=102 time=328", "time": 328}, {"message": "note_on channel=0 note=0 velocity=102 time=626", "time": 626}, {"message": "note_off channel=0 note=0 velocity=102 time=335", "time": 335}, {"message": "note_on channel=0 note=0 velocity=102 time=627", "time": 627}, {"message": "note_off channel=0 note=0 velocity=102 time=333", "time": 333}, {"message": "note_on channel=0 note=0 velocity=102 time=631", "time": 631}, {"message": "note_off channel=0 note=0 velocity=102 time=329", "time": 329}, {"message": "note_on channel=0 note=0 velocity=102 time=623", "time": 623}, {"message": "note_off channel=0 note=0 velocity=102 time=336", "time": 336}, {"message": "note_on channel=0 note=0 velocity=102 time=638", "time": 638}, {"message": "note_off channel=0 note=0 velocity=102 time=322", "time": 322}, {"message": "note_on channel=0 note=0 velocity=102 time=637", "time": 637}, {"message": "note_off channel=0 note=0 velocity=102 time=323", "time": 323}, {"message": "note_on channel=0 note=0 velocity=102 time=641", "time": 641}, {"message": "note_off channel=0 note=0 velocity=102 time=320", "time": 320}, {"message": "note_on channel=0 note=0 velocity=102 time=634", "time": 634}, {"message": "note_off channel=0 note=0 velocity=102 time=326", "time": 326}, {"message": "note_on channel=0 note=0 velocity=102 time=640", "time": 640}, {"message": "note_off channel=0 note=0 velocity=102 time=320", "time": 320}, {"message": "note_on channel=0 note=0 velocity=102 time=629", "time": 629}, {"message": "note_off channel=0 note=0 velocity=102 time=330", "time": 330}, {"message": "note_on channel=0 note=0 velocity=102 time=624", "time": 624}, {"message": "note_off channel=0 note=0 velocity=102 time=337", "time": 337}, {"message": "note_on channel=0 note=0 velocity=102 time=622", "time": 622}, {"message": "note_off channel=0 note=0 velocity=102 time=337", "time": 337}, {"message": "note_on channel=0 note=0 velocity=102 time=638", "time": 638}, {"message": "note_off channel=0 note=0 velocity=102 time=323", "time": 323}, {"message": "note_on channel=0 note=0 velocity=102 time=622", "time": 622}, {"message": "note_off channel=0 note=0 velocity=102 time=338", "time": 338}, {"message": "note_on channel=0 note=0 velocity=102 time=631", "time": 631}, {"message": "note_off channel=0 note=0 velocity=102 time=329", "time": 329}, {"message": "note_on channel=0 note=0 velocity=102 time=632", "time": 632}, {"message": "note_off channel=0 note=0 velocity=102 time=328", "time": 328}, {"message": "note_on channel=0 note=0 velocity=102 time=636", "time": 636}, {"message": "note_off channel=0 note=0 velocity=102 time=323", "time": 323}, {"message": "note_on channel=0 note=0 velocity=102 time=624", "time": 624}, {"message": "note_off channel=0 note=0 velocity=102 time=337", "time": 337}, {"message": "note_on channel=0 note=0 velocity=102 time=629", "time": 629}, {"message": "note_off channel=0 note=0 velocity=102 time=330", "time": 330}, {"message": "note_on channel=0 note=0 velocity=102 time=641", "time": 641}, {"message": "note_off channel=0 note=0 velocity=102 time=320", "time": 320}, {"message": "note_on channel=0 note=0 velocity=102 time=632", "time": 632}, {"message": "note_off channel=0 note=0 velocity=102 time=328", "time": 328}, {"message": "note_on channel=0 note=0 velocity=102 time=638", "time": 638}, {"message": "note_off channel=0 note=0 velocity=102 time=321", "time": 321}, {"message": "note_on channel=0 note=0 velocity=102 time=631", "time": 631}, {"message": "note_off channel=0 note=0 velocity=102 time=330", "time": 330}, {"message": "note_on channel=0 note=0 velocity=102 time=623", "time": 623}, {"message": "note_off channel=0 note=0 velocity=102 time=337", "time": 337}, {"message": "note_on channel=0 note=0 velocity=102 time=626", "time": 626}, {"message": "note_off channel=0 note=0 velocity=102 time=333", "time": 333}, {"message": "note_on channel=0 note=0 velocity=102 time=640", "time": 640}, {"message": "note_off channel=0 note=0 velocity=102 time=321", "time": 321}, {"message": "MetaMessage('end_of_track', time=0)", "time": 0}]}, {"track": 5, "contents": [{"message": "MetaMessage('track_name', name='Percussion', time=0)", "time": 0}, {"message": "note_on channel=0 note=12 velocity=102 time=53590", "time": 53590}, {"message": "note_off channel=0 note=12 velocity=102 time=169", "time": 169}, {"message": "note_on channel=0 note=13 velocity=102 time=4145", "time": 4145}, {"message": "note_off channel=0 note=13 velocity=102 time=175", "time": 175}, {"message": "note_on channel=0 note=13 velocity=102 time=1263", "time": 1263}, {"message": "note_off channel=0 note=13 velocity=102 time=177", "time": 177}, {"message": "note_on channel=0 note=13 velocity=102 time=311", "time": 311}, {"message": "note_off channel=0 note=13 velocity=102 time=169", "time": 169}, {"message": "note_on channel=0 note=13 velocity=102 time=310", "time": 310}, {"message": "note_off channel=0 note=13 velocity=102 time=170", "time": 170}, {"message": "note_on channel=0 note=12 velocity=102 time=792", "time": 792}, {"message": "note_off channel=0 note=12 velocity=102 time=168", "time": 168}, {"message": "note_on channel=0 note=12 velocity=102 time=7503", "time": 7503}, {"message": "note_off channel=0 note=12 velocity=102 time=177", "time": 177}, {"message": "note_on channel=0 note=13 velocity=102 time=4142", "time": 4142}, {"message": "note_off channel=0 note=13 velocity=102 time=178", "time": 178}, {"message": "note_on channel=0 note=13 velocity=102 time=1277", "time": 1277}, {"message": "note_off channel=0 note=13 velocity=102 time=163", "time": 163}, {"message": "note_on channel=0 note=13 velocity=102 time=318", "time": 318}, {"message": "note_off channel=0 note=13 velocity=102 time=162", "time": 162}, {"message": "note_on channel=0 note=13 velocity=102 time=307", "time": 307}, {"message": "note_off channel=0 note=13 velocity=102 time=173", "time": 173}, {"message": "note_on channel=0 note=12 velocity=102 time=788", "time": 788}, {"message": "note_off channel=0 note=12 velocity=102 time=172", "time": 172}, {"message": "note_on channel=0 note=12 velocity=102 time=7519", "time": 7519}, {"message": "note_off channel=0 note=12 velocity=102 time=161", "time": 161}, {"message": "note_on channel=0 note=13 velocity=102 time=4158", "time": 4158}, {"message": "note_off channel=0 note=13 velocity=102 time=162", "time": 162}, {"message": "note_on channel=0 note=13 velocity=102 time=1264", "time": 1264}, {"message": "note_off channel=0 note=13 velocity=102 time=176", "time": 176}, {"message": "note_on channel=0 note=13 velocity=102 time=319", "time": 319}, {"message": "note_off channel=0 note=13 velocity=102 time=161", "time": 161}, {"message": "note_on channel=0 note=13 velocity=102 time=318", "time": 318}, {"message": "note_off channel=0 note=13 velocity=102 time=162", "time": 162}, {"message": "note_on channel=0 note=12 velocity=102 time=786", "time": 786}, {"message": "note_off channel=0 note=12 velocity=102 time=174", "time": 174}, {"message": "note_on channel=0 note=12 velocity=102 time=7505", "time": 7505}, {"message": "note_off channel=0 note=12 velocity=102 time=175", "time": 175}, {"message": "note_on channel=0 note=13 velocity=102 time=4158", "time": 4158}, {"message": "note_off channel=0 note=13 velocity=102 time=161", "time": 161}, {"message": "note_on channel=0 note=13 velocity=102 time=1280", "time": 1280}, {"message": "note_off channel=0 note=13 velocity=102 time=161", "time": 161}, {"message": "note_on channel=0 note=13 velocity=102 time=318", "time": 318}, {"message": "note_off channel=0 note=13 velocity=102 time=162", "time": 162}, {"message": "note_on channel=0 note=13 velocity=102 time=319", "time": 319}, {"message": "note_off channel=0 note=13 velocity=102 time=160", "time": 160}, {"message": "note_on channel=0 note=12 velocity=102 time=795", "time": 795}, {"message": "note_off channel=0 note=12 velocity=102 time=166", "time": 166}, {"message": "note_on channel=0 note=12 velocity=102 time=7506", "time": 7506}, {"message": "note_off channel=0 note=12 velocity=102 time=174", "time": 174}, {"message": "note_on channel=0 note=13 velocity=102 time=4152", "time": 4152}, {"message": "note_off channel=0 note=13 velocity=102 time=168", "time": 168}, {"message": "note_on channel=0 note=13 velocity=102 time=1262", "time": 1262}, {"message": "note_off channel=0 note=13 velocity=102 time=178", "time": 178}, {"message": "note_on channel=0 note=13 velocity=102 time=317", "time": 317}, {"message": "note_off channel=0 note=13 velocity=102 time=163", "time": 163}, {"message": "note_on channel=0 note=13 velocity=102 time=315", "time": 315}, {"message": "note_off channel=0 note=13 velocity=102 time=165", "time": 165}, {"message": "note_on channel=0 note=12 velocity=102 time=790", "time": 790}, {"message": "note_off channel=0 note=12 velocity=102 time=170", "time": 170}, {"message": "note_on channel=0 note=12 velocity=102 time=7513", "time": 7513}, {"message": "note_off channel=0 note=12 velocity=102 time=167", "time": 167}, {"message": "note_on channel=0 note=13 velocity=102 time=4160", "time": 4160}, {"message": "note_off channel=0 note=13 velocity=102 time=160", "time": 160}, {"message": "note_on channel=0 note=13 velocity=102 time=1274", "time": 1274}, {"message": "note_off channel=0 note=13 velocity=102 time=166", "time": 166}, {"message": "note_on channel=0 note=13 velocity=102 time=300", "time": 300}, {"message": "note_off channel=0 note=13 velocity=102 time=180", "time": 180}, {"message": "note_on channel=0 note=13 velocity=102 time=314", "time": 314}, {"message": "note_off channel=0 note=13 velocity=102 time=165", "time": 165}, {"message": "note_on channel=0 note=12 velocity=102 time=798", "time": 798}, {"message": "note_off channel=0 note=12 velocity=102 time=163", "time": 163}, {"message": "note_on channel=0 note=12 velocity=102 time=7503", "time": 7503}, {"message": "note_off channel=0 note=12 velocity=102 time=177", "time": 177}, {"message": "note_on channel=0 note=13 velocity=102 time=4145", "time": 4145}, {"message": "note_off channel=0 note=13 velocity=102 time=175", "time": 175}, {"message": "note_on channel=0 note=13 velocity=102 time=1279", "time": 1279}, {"message": "note_off channel=0 note=13 velocity=102 time=161", "time": 161}, {"message": "note_on channel=0 note=13 velocity=102 time=308", "time": 308}, {"message": "note_off channel=0 note=13 velocity=102 time=172", "time": 172}, {"message": "note_on channel=0 note=13 velocity=102 time=303", "time": 303}, {"message": "note_off channel=0 note=13 velocity=102 time=177", "time": 177}, {"message": "note_on channel=0 note=12 velocity=102 time=792", "time": 792}, {"message": "note_off channel=0 note=12 velocity=102 time=168", "time": 168}, {"message": "note_on channel=0 note=12 velocity=102 time=7508", "time": 7508}, {"message": "note_off channel=0 note=12 velocity=102 time=172", "time": 172}, {"message": "note_on channel=0 note=13 velocity=102 time=4159", "time": 4159}, {"message": "note_off channel=0 note=13 velocity=102 time=161", "time": 161}, {"message": "note_on channel=0 note=13 velocity=102 time=1279", "time": 1279}, {"message": "note_off channel=0 note=13 velocity=102 time=161", "time": 161}, {"message": "note_on channel=0 note=13 velocity=102 time=307", "time": 307}, {"message": "note_off channel=0 note=13 velocity=102 time=173", "time": 173}, {"message": "note_on channel=0 note=13 velocity=102 time=310", "time": 310}, {"message": "note_off channel=0 note=13 velocity=102 time=170", "time": 170}, {"message": "note_on channel=0 note=12 velocity=102 time=783", "time": 783}, {"message": "note_off channel=0 note=12 velocity=102 time=177", "time": 177}, {"message": "note_on channel=0 note=12 velocity=102 time=7519", "time": 7519}, {"message": "note_off channel=0 note=12 velocity=102 time=161", "time": 161}, {"message": "note_on channel=0 note=13 velocity=102 time=4159", "time": 4159}, {"message": "note_off channel=0 note=13 velocity=102 time=161", "time": 161}, {"message": "note_on channel=0 note=13 velocity=102 time=1266", "time": 1266}, {"message": "note_off channel=0 note=13 velocity=102 time=174", "time": 174}, {"message": "note_on channel=0 note=13 velocity=102 time=317", "time": 317}, {"message": "note_off channel=0 note=13 velocity=102 time=162", "time": 162}, {"message": "note_on channel=0 note=13 velocity=102 time=305", "time": 305}, {"message": "note_off channel=0 note=13 velocity=102 time=176", "time": 176}, {"message": "note_on channel=0 note=12 velocity=102 time=780", "time": 780}, {"message": "note_off channel=0 note=12 velocity=102 time=180", "time": 180}, {"message": "note_on channel=0 note=12 velocity=102 time=7507", "time": 7507}, {"message": "note_off channel=0 note=12 velocity=102 time=173", "time": 173}, {"message": "note_on channel=0 note=13 velocity=102 time=4158", "time": 4158}, {"message": "note_off channel=0 note=13 velocity=102 time=161", "time": 161}, {"message": "note_on channel=0 note=13 velocity=102 time=1261", "time": 1261}, {"message": "note_off channel=0 note=13 velocity=102 time=180", "time": 180}, {"message": "note_on channel=0 note=13 velocity=102 time=313", "time": 313}, {"message": "note_off channel=0 note=13 velocity=102 time=167", "time": 167}, {"message": "note_on channel=0 note=13 velocity=102 time=310", "time": 310}, {"message": "note_off channel=0 note=13 velocity=102 time=170", "time": 170}, {"message": "note_on channel=0 note=12 velocity=102 time=796", "time": 796}, {"message": "note_off channel=0 note=12 velocity=102 time=164", "time": 164}, {"message": "note_on channel=0 note=12 velocity=102 time=7507", "time": 7507}, {"message": "note_off channel=0 note=12 velocity=102 time=173", "time": 173}, {"message": "note_on channel=0 note=13 velocity=102 time=4158", "time": 4158}, {"message": "note_off channel=0 note=13 velocity=102 time=162", "time": 162}, {"message": "note_on channel=0 note=13 velocity=102 time=1271", "time": 1271}, {"message": "note_off channel=0 note=13 velocity=102 time=169", "time": 169}, {"message": "note_on channel=0 note=13 velocity=102 time=313", "time": 313}, {"message": "note_off channel=0 note=13 velocity=102 time=167", "time": 167}, {"message": "note_on channel=0 note=13 velocity=102 time=309", "time": 309}, {"message": "note_off channel=0 note=13 velocity=102 time=171", "time": 171}, {"message": "note_on channel=0 note=12 velocity=102 time=797", "time": 797}, {"message": "note_off channel=0 note=12 velocity=102 time=163", "time": 163}, {"message": "MetaMessage('end_of_track', time=0)", "time": 0}]}, {"track": 6, "contents": [{"message": "MetaMessage('track_name', name='Cymbal', time=0)", "time": 0}, {"message": "note_on channel=0 note=0 velocity=0 time=0", "time": 0}, {"message": "note_off channel=0 note=0 velocity=0 time=960", "time": 960}, {"message": "MetaMessage('end_of_track', time=0)", "time": 0}]}, {"track": 7, "contents": [{"message": "MetaMessage('track_name', name='Ride', time=0)", "time": 0}, {"message": "note_on channel=0 note=0 velocity=0 time=0", "time": 0}, {"message": "note_off channel=0 note=0 velocity=0 time=960", "time": 960}, {"message": "MetaMessage('end_of_track', time=0)", "time": 0}]}]