[{"track": 0, "contents": [{"message": "MetaMessage('track_name', name='Melody Track', time=0)", "time": 0}, {"message": "program_change channel=0 program=0 time=0", "time": 0}, {"message": "MetaMessage('set_tempo', tempo=645161, time=0)", "time": 0}, {"message": "note_on channel=0 note=77 velocity=78 time=981", "time": 981}, {"message": "note_off channel=0 note=77 velocity=78 time=938", "time": 938}, {"message": "note_on channel=0 note=79 velocity=79 time=12", "time": 12}, {"message": "note_off channel=0 note=79 velocity=79 time=1908", "time": 1908}, {"message": "note_on channel=0 note=84 velocity=63 time=22", "time": 22}, {"message": "note_off channel=0 note=84 velocity=63 time=3817", "time": 3817}, {"message": "note_on channel=0 note=79 velocity=76 time=967", "time": 967}, {"message": "note_off channel=0 note=79 velocity=76 time=6714", "time": 6714}, {"message": "note_on channel=0 note=79 velocity=63 time=946", "time": 946}, {"message": "note_off channel=0 note=79 velocity=63 time=974", "time": 974}, {"message": "note_on channel=0 note=82 velocity=61 time=7", "time": 7}, {"message": "note_on channel=0 note=72 velocity=75 time=1901", "time": 1901}, {"message": "note_off channel=0 note=82 velocity=61 time=12", "time": 12}, {"message": "note_on channel=0 note=79 velocity=63 time=3379", "time": 3379}, {"message": "note_off channel=0 note=72 velocity=75 time=461", "time": 461}, {"message": "note_off channel=0 note=79 velocity=63 time=1440", "time": 1440}, {"message": "note_on channel=0 note=81 velocity=68 time=19", "time": 19}, {"message": "note_off channel=0 note=81 velocity=68 time=461", "time": 461}, {"message": "note_on channel=0 note=82 velocity=72 time=25", "time": 25}, {"message": "note_off channel=0 note=82 velocity=72 time=455", "time": 455}, {"message": "note_on channel=0 note=82 velocity=76 time=4", "time": 4}, {"message": "note_off channel=0 note=82 velocity=76 time=985", "time": 985}, {"message": "note_on channel=0 note=82 velocity=79 time=0", "time": 0}, {"message": "note_off channel=0 note=82 velocity=79 time=931", "time": 931}, {"message": "note_on channel=0 note=81 velocity=74 time=12", "time": 12}, {"message": "note_on channel=0 note=82 velocity=70 time=457", "time": 457}, {"message": "note_off channel=0 note=81 velocity=74 time=11", "time": 11}, {"message": "note_off channel=0 note=82 velocity=70 time=480", "time": 480}, {"message": "note_on channel=0 note=81 velocity=66 time=16", "time": 16}, {"message": "note_on channel=0 note=79 velocity=61 time=1419", "time": 1419}, {"message": "note_off channel=0 note=81 velocity=66 time=5", "time": 5}, {"message": "note_off channel=0 note=79 velocity=61 time=960", "time": 960}, {"message": "note_on channel=0 note=77 velocity=74 time=31710", "time": 31710}, {"message": "note_off channel=0 note=77 velocity=74 time=930", "time": 930}, {"message": "note_on channel=0 note=79 velocity=79 time=28", "time": 28}, {"message": "note_off channel=0 note=79 velocity=79 time=1892", "time": 1892}, {"message": "note_on channel=0 note=84 velocity=68 time=10", "time": 10}, {"message": "note_off channel=0 note=84 velocity=68 time=3830", "time": 3830}, {"message": "note_on channel=0 note=79 velocity=79 time=965", "time": 965}, {"message": "note_off channel=0 note=79 velocity=79 time=6714", "time": 6714}, {"message": "note_on channel=0 note=79 velocity=67 time=967", "time": 967}, {"message": "note_off channel=0 note=79 velocity=67 time=954", "time": 954}, {"message": "note_on channel=0 note=82 velocity=61 time=16", "time": 16}, {"message": "note_on channel=0 note=72 velocity=71 time=1892", "time": 1892}, {"message": "note_off channel=0 note=82 velocity=61 time=12", "time": 12}, {"message": "note_on channel=0 note=79 velocity=67 time=3359", "time": 3359}, {"message": "note_off channel=0 note=72 velocity=71 time=481", "time": 481}, {"message": "note_off channel=0 note=79 velocity=67 time=1440", "time": 1440}, {"message": "note_on channel=0 note=81 velocity=63 time=7", "time": 7}, {"message": "note_off channel=0 note=81 velocity=63 time=473", "time": 473}, {"message": "note_on channel=0 note=82 velocity=68 time=24", "time": 24}, {"message": "note_off channel=0 note=82 velocity=68 time=448", "time": 448}, {"message": "note_on channel=0 note=82 velocity=71 time=0", "time": 0}, {"message": "note_off channel=0 note=82 velocity=71 time=964", "time": 964}, {"message": "note_on channel=0 note=82 velocity=79 time=0", "time": 0}, {"message": "note_off channel=0 note=82 velocity=79 time=964", "time": 964}, {"message": "note_on channel=0 note=81 velocity=78 time=22", "time": 22}, {"message": "note_off channel=0 note=81 velocity=78 time=458", "time": 458}, {"message": "note_on channel=0 note=82 velocity=75 time=2", "time": 2}, {"message": "note_off channel=0 note=82 velocity=75 time=478", "time": 478}, {"message": "note_on channel=0 note=81 velocity=70 time=9", "time": 9}, {"message": "note_off channel=0 note=81 velocity=70 time=1431", "time": 1431}, {"message": "note_on channel=0 note=79 velocity=61 time=24", "time": 24}, {"message": "note_off channel=0 note=79 velocity=61 time=936", "time": 936}, {"message": "note_on channel=0 note=77 velocity=72 time=959", "time": 959}, {"message": "note_off channel=0 note=77 velocity=72 time=961", "time": 961}, {"message": "note_on channel=0 note=79 velocity=79 time=23", "time": 23}, {"message": "note_off channel=0 note=79 velocity=79 time=1897", "time": 1897}, {"message": "note_on channel=0 note=84 velocity=70 time=9", "time": 9}, {"message": "note_off channel=0 note=84 velocity=70 time=3831", "time": 3831}, {"message": "note_on channel=0 note=79 velocity=79 time=989", "time": 989}, {"message": "note_off channel=0 note=79 velocity=79 time=6690", "time": 6690}, {"message": "note_on channel=0 note=79 velocity=69 time=986", "time": 986}, {"message": "note_on channel=0 note=82 velocity=62 time=931", "time": 931}, {"message": "note_off channel=0 note=79 velocity=69 time=4", "time": 4}, {"message": "note_off channel=0 note=82 velocity=62 time=1920", "time": 1920}, {"message": "note_on channel=0 note=72 velocity=70 time=26", "time": 26}, {"message": "note_on channel=0 note=79 velocity=69 time=3337", "time": 3337}, {"message": "note_off channel=0 note=72 velocity=70 time=477", "time": 477}, {"message": "note_off channel=0 note=79 velocity=69 time=1440", "time": 1440}, {"message": "note_on channel=0 note=81 velocity=62 time=18", "time": 18}, {"message": "note_off channel=0 note=81 velocity=62 time=462", "time": 462}, {"message": "note_on channel=0 note=82 velocity=65 time=2", "time": 2}, {"message": "note_off channel=0 note=82 velocity=65 time=478", "time": 478}, {"message": "note_on channel=0 note=82 velocity=70 time=13", "time": 13}, {"message": "note_off channel=0 note=82 velocity=70 time=934", "time": 934}, {"message": "note_on channel=0 note=82 velocity=77 time=0", "time": 0}, {"message": "note_off channel=0 note=82 velocity=77 time=973", "time": 973}, {"message": "note_on channel=0 note=81 velocity=79 time=21", "time": 21}, {"message": "note_off channel=0 note=81 velocity=79 time=459", "time": 459}, {"message": "note_on channel=0 note=82 velocity=76 time=26", "time": 26}, {"message": "note_off channel=0 note=82 velocity=76 time=454", "time": 454}, {"message": "note_on channel=0 note=81 velocity=72 time=8", "time": 8}, {"message": "note_off channel=0 note=81 velocity=72 time=1432", "time": 1432}, {"message": "note_on channel=0 note=79 velocity=61 time=12", "time": 12}, {"message": "note_off channel=0 note=79 velocity=61 time=948", "time": 948}, {"message": "note_on channel=0 note=0 velocity=0 time=0", "time": 0}, {"message": "note_off channel=0 note=0 velocity=0 time=3840", "time": 3840}, {"message": "MetaMessage('end_of_track', time=0)", "time": 0}]}]
